<?xml version="1.0" encoding="UTF-8"?>
<svg width="50px" height="50px" viewBox="0 0 50 50" version="1.1" xmlns="http://www.w3.org/2000/svg" xmlns:xlink="http://www.w3.org/1999/xlink">
    <title>structure</title>
    <g id="Icons" stroke="none" stroke-width="1" fill="none" fill-rule="evenodd">
        <g transform="translate(-680.000000, -230.000000)" id="structure">
            <g transform="translate(680.000000, 230.000000)" id="paths">
                <rect id="Rectangle" stroke="#5D63F1" stroke-width="2" x="1" y="1" width="48" height="48" rx="6"></rect>
                <path d="M36.9999392,23.500025 C37.8278028,23.500025 38.4999356,22.8278922 38.4999356,22.0000286 L38.4999356,16.0000501 C38.4999356,15.1721793 37.8278028,14.5000501 36.9999392,14.5000501 L31.7499517,14.5000501 L30.2499553,13.0000501 L26.4999678,13.0000501 C25.6721006,13.0000501 24.9999678,13.6721829 24.9999678,14.5000501 L24.9999678,22.0000286 C24.9999678,22.8278922 25.6721006,23.500025 26.4999678,23.500025 L36.9999392,23.500025 Z M23.4999714,34 L23.4999714,31.0000072 L14.5,31.0000072 L14.5,20.5000322 L23.4999714,20.5000322 L23.4999714,17.5000393 L14.5,17.5000393 L14.5,13.7500483 C14.5,13.3360936 14.1639493,13.0000501 13.7499946,13.0000501 L12.2499982,13.0000501 C11.8360435,13.0000501 11.5,13.3360936 11.5,13.7500483 L11.5,32.5000036 C11.5,33.3278672 12.1721328,34 13,34 L23.4999714,34 Z M36.9999392,36.9999928 C37.8278028,36.9999928 38.4999356,36.3278601 38.4999356,35.4999964 L38.4999356,29.5000179 C38.4999356,28.6721471 37.8278028,28.0000179 36.9999392,28.0000179 L31.7499517,28.0000179 L30.2499553,26.5000179 L26.4999678,26.5000179 C25.6721006,26.5000179 24.9999678,27.1721507 24.9999678,28.0000179 L24.9999678,35.4999964 C24.9999678,36.3278601 25.6721006,36.9999928 26.4999678,36.9999928 L36.9999392,36.9999928 Z" id="" fill="#5D63F1" fill-rule="nonzero"></path>
            </g>
        </g>
    </g>
</svg>