<?xml version="1.0" encoding="UTF-8"?>
<svg width="50px" height="50px" viewBox="0 0 50 50" version="1.1" xmlns="http://www.w3.org/2000/svg" xmlns:xlink="http://www.w3.org/1999/xlink">
    <title>XML Encode</title>
    <g id="Icons" stroke="none" stroke-width="1" fill="#5D63F1" fill-rule="evenodd">
        <g transform="translate(-680.000000, -140.000000)" fill="#5D63F1" fill-rule="nonzero" id="xml-encode">
            <g transform="translate(680.000000, 140.000000)" id="paths">
                <path d="M44,0 C47.3137085,0 50,2.6862915 50,6 L50,44 C50,47.3137085 47.3137085,50 44,50 L6,50 C2.6862915,50 0,47.3137085 0,44 L0,6 C0,2.6862915 2.6862915,0 6,0 L44,0 Z M44,2 L6,2 C3.85780461,2 2.10892112,3.68396847 2.00489531,5.80035966 L2,6 L2,44 C2,46.1421954 3.68396847,47.8910789 5.80035966,47.9951047 L6,48 L44,48 C46.1421954,48 47.8910789,46.3160315 47.9951047,44.1996403 L48,44 L48,6 C48,3.85780461 46.3160315,2.10892112 44.1996403,2.00489531 L44,2 Z" id="Rectangle"></path>
                <path d="M36.9999356,31.0000072 L36.9999356,15.2500447 C36.9999356,14.0125293 35.9874564,13.0000501 34.749941,13.0000501 L15.2499875,13.0000501 C14.0124721,13.0000501 12.9999928,14.0125293 12.9999928,15.2500447 L12.9999928,31.0000072 L36.9999356,31.0000072 Z M33.9999428,28.0000143 L15.9999857,28.0000143 L15.9999857,16.0000429 L33.9999428,16.0000429 L33.9999428,28.0000143 Z M23.0152888,25.2648829 L23.5454236,24.7347023 C23.8383917,24.4417342 23.8383917,23.9668971 23.5454236,23.673929 L21.8710654,22.0000286 L23.5449659,20.3256704 C23.8379339,20.0327024 23.8379339,19.5578652 23.5449659,19.2648972 L23.014831,18.7347166 C22.721863,18.4417485 22.2469801,18.4417485 21.954012,18.7347166 L19.2193384,21.4693902 C18.9263703,21.7623583 18.9263703,22.2371954 19.2193384,22.5301635 L21.9545156,25.2648829 C22.2474836,25.5578509 22.7223207,25.5578509 23.0152888,25.2648829 Z M28.0459164,25.2653406 L30.7805901,22.530667 C31.0735582,22.2376989 31.0735582,21.7628618 30.7805901,21.4698938 L28.0459164,18.7351743 C27.7529484,18.4422063 27.2780655,18.4422063 26.9850974,18.7351743 L26.4549626,19.265355 C26.1619945,19.558323 26.1619945,20.0331601 26.4549626,20.3261282 L28.128863,22.0000286 L26.4549626,23.6743868 C26.1619945,23.9673549 26.1619945,24.442192 26.4549626,24.73516 L26.9850974,25.2653406 C27.2780655,25.5583087 27.7529484,25.5583087 28.0459164,25.2653406 Z M36.9999356,36.9999928 C38.6499408,36.9999928 39.9999285,35.6500052 39.9999285,34.0000036 L39.9999285,33.2500018 C39.9999285,32.8375119 39.6624201,32.5000036 39.2499303,32.5000036 L27.8846467,32.5000036 C27.8499483,33.428575 27.1951189,34.0000036 26.3499519,34.0000036 L23.4999678,34.0000036 C22.623856,34.0000036 21.952181,33.1811085 21.9638997,32.5000036 L10.7499982,32.5000036 C10.3375084,32.5000036 10,32.8375119 10,33.2500018 L10,34.0000036 C10,35.6500052 11.3499876,36.9999928 13,36.9999928 L36.9999356,36.9999928 Z" id=""></path>
            </g>
        </g>
    </g>
</svg>