<?xml version="1.0" encoding="UTF-8"?>
<svg width="50px" height="50px" viewBox="0 0 50 50" version="1.1" xmlns="http://www.w3.org/2000/svg" xmlns:xlink="http://www.w3.org/1999/xlink">
    <title>Forum</title>
    <g id="Icons" stroke="none" stroke-width="1" fill="#5D63F1" fill-rule="evenodd">
        <g transform="translate(-410.000000, -50.000000)" fill="#5D63F1" fill-rule="nonzero" id="forum">
            <g transform="translate(410.000000, 50.000000)" id="paths">
                <path d="M44,0 C47.3137085,0 50,2.6862915 50,6 L50,44 C50,47.3137085 47.3137085,50 44,50 L6,50 C2.6862915,50 0,47.3137085 0,44 L0,6 C0,2.6862915 2.6862915,0 6,0 L44,0 Z M44,2 L6,2 C3.85780461,2 2.10892112,3.68396847 2.00489531,5.80035966 L2,6 L2,44 C2,46.1421954 3.68396847,47.8910789 5.80035966,47.9951047 L6,48 L44,48 C46.1421954,48 47.8910789,46.3160315 47.9951047,44.1996403 L48,44 L48,6 C48,3.85780461 46.3160315,2.10892112 44.1996403,2.00489531 L44,2 Z" id="Rectangle"></path>
                <path d="M21.2499768,28.5000107 C26.6359197,28.5000107 30.9999535,25.143787 30.9999535,21.0000286 C30.9999535,16.8562702 26.6359197,13.5000465 21.2499768,13.5000465 C15.8640338,13.5000465 11.5,16.8562702 11.5,21.0000286 C11.5,22.6078281 12.1609176,24.0891021 13.2812458,25.3125183 C12.6531039,26.7281491 11.6171872,27.8531464 11.6031339,27.8671997 C11.5,27.9750028 11.4718934,28.1343958 11.5328216,28.2750204 C11.5937498,28.4156451 11.7249903,28.5000107 11.8749991,28.5000107 C13.5906017,28.5000107 15.0109474,27.9234588 16.0328108,27.3281385 C17.5421914,28.0640834 19.3281063,28.5000107 21.2499768,28.5000107 Z M38.1249365,34.4999964 C38.2749453,34.4999964 38.410855,34.4109158 38.467114,34.2750061 C38.5280422,34.1390506 38.4999356,33.9797035 38.3968017,33.8671854 C38.3827484,33.8531321 37.3468317,32.732804 36.7186899,31.312504 C37.839018,30.0937569 38.4999356,28.6078138 38.4999356,27.0000143 C38.4999356,23.864066 35.9921291,21.178144 32.4390217,20.0578617 C32.4811817,20.3672176 32.4999499,20.6812885 32.4999499,21.0000286 C32.4999499,25.9640976 27.4515153,30.0000072 21.2499768,30.0000072 C20.7437371,30.0000072 20.2515508,29.9625164 19.7640336,29.9109266 C21.2405926,32.6062326 24.7093344,34.4999964 28.7499589,34.4999964 C30.6718293,34.4999964 32.4577442,34.0687383 33.9671248,33.3281242 C34.9889882,33.9234445 36.4093339,34.4999964 38.1249365,34.4999964 Z" id=""></path>
            </g>
        </g>
    </g>
</svg>