<?xml version="1.0" encoding="UTF-8"?>

<svg width="50px" height="50px" viewBox="0 0 50 50" version="1.1" xmlns="http://www.w3.org/2000/svg" xmlns:xlink="http://www.w3.org/1999/xlink">

    <title>IP Nation</title>
    <g id="Icons" stroke="none" stroke-width="1" fill="#5D63F1" fill-rule="evenodd">
        <g transform="translate(-50.000000, -50.000000)" fill="#5D63F1" fill-rule="nonzero" id="ip-nation-paths">
            <g transform="translate(50.000000, 50.000000)">
                <path d="M44,0 C47.3137085,0 50,2.6862915 50,6 L50,44 C50,47.3137085 47.3137085,50 44,50 L6,50 C2.6862915,50 0,47.3137085 0,44 L0,6 C0,2.6862915 2.6862915,0 6,0 L44,0 Z M44,2 L6,2 C3.85780461,2 2.10892112,3.68396847 2.00489531,5.80035966 L2,6 L2,44 C2,46.1421954 3.68396847,47.8910789 5.80035966,47.9951047 L6,48 L44,48 C46.1421954,48 47.8910789,46.3160315 47.9951047,44.1996403 L48,44 L48,6 C48,3.85780461 46.3160315,2.10892112 44.1996403,2.00489531 L44,2 Z" id="Rectangle"></path>
                <path d="M29.1483999,20.5000322 C28.468714,16.3141138 26.8655837,13.3750492 24.9999723,13.3750492 C23.1343609,13.3750492 21.5312306,16.3141138 20.8515447,20.5000322 L29.1483999,20.5000322 Z M35.7202684,20.5000322 C34.3796191,17.317209 31.6655905,14.8562773 28.314036,13.8625663 C29.4577558,15.4469284 30.2452906,17.8328327 30.6577804,20.5000322 L35.7202684,20.5000322 Z M19.3421641,20.5000322 C19.7499848,17.8328327 20.5374738,15.4469284 21.6812394,13.8625663 C18.334354,14.8562773 15.6156105,17.317209 14.2796762,20.5000322 L19.3421641,20.5000322 Z M29.3405686,28.0000143 C29.4390334,27.0390791 29.4952924,26.0406531 29.4952924,25.0000286 C29.4952924,23.9593898 29.4390334,22.9609638 29.3405686,22.0000286 L20.654661,22.0000286 C20.556242,22.9609638 20.499983,23.9593898 20.499983,25.0000286 C20.499983,26.0406531 20.556242,27.0390791 20.654661,28.0000143 L29.3405686,28.0000143 Z M36.2171239,28.0000143 C36.4749358,27.0390791 36.6202754,26.0406531 36.6202754,25.0000286 C36.6202754,23.9593898 36.4749358,22.9609638 36.2218388,22.0000286 L30.84528,22.0000286 C30.943699,22.9844013 30.999958,23.9922114 30.999958,25.0000286 C30.999958,26.0078316 30.943699,27.0156417 30.84528,28.0000143 L36.2171239,28.0000143 Z M19.1499954,28.0000143 C19.0562456,27.0156417 18.9999866,26.0078316 18.9999866,25.0000286 C18.9999866,23.9922114 19.0562456,22.9844013 19.1546646,22.0000286 L13.7781057,22.0000286 C13.5250088,22.9609638 13.375,23.9593898 13.375,25.0000286 C13.375,26.0406531 13.5250088,27.0390791 13.7781057,28.0000143 L19.1499954,28.0000143 Z M24.9999723,36.6249937 C26.8655837,36.6249937 28.468714,33.6859291 29.1483999,29.5000107 L20.8515447,29.5000107 C21.5312306,33.6859291 23.1343609,36.6249937 24.9999723,36.6249937 Z M28.3187052,36.1374766 C31.6655905,35.1437656 34.3843341,32.682834 35.7249376,29.5000107 L30.6624496,29.5000107 C30.2499598,32.1672102 29.4624708,34.5531145 28.3187052,36.1374766 Z M21.6859085,36.1374766 C20.5421887,34.5531145 19.754654,32.1672102 19.3421641,29.5000107 L14.2796762,29.5000107 C15.6203255,32.682834 18.334354,35.1437656 21.6859085,36.1374766 Z" id=""></path>
            </g>
        </g>
    </g>
</svg>