<?xml version="1.0" encoding="UTF-8"?>
<svg width="50px" height="50px" viewBox="0 0 50 50" version="1.1" xmlns="http://www.w3.org/2000/svg" xmlns:xlink="http://www.w3.org/1999/xlink">
    <title>HTTP Methods</title>
    <g id="Icons" stroke="none" stroke-width="1" fill="#5D63F1" fill-rule="evenodd">
        <g transform="translate(-500.000000, -50.000000)" fill="#5D63F1" fill-rule="nonzero" id="http-header">
            <g transform="translate(500.000000, 50.000000)" id="paths">
                <path d="M44,0 C47.3137085,0 50,2.6862915 50,6 L50,44 C50,47.3137085 47.3137085,50 44,50 L6,50 C2.6862915,50 0,47.3137085 0,44 L0,6 C0,2.6862915 2.6862915,0 6,0 L44,0 Z M44,2 L6,2 C3.85780461,2 2.10892112,3.68396847 2.00489531,5.80035966 L2,6 L2,44 C2,46.1421954 3.68396847,47.8910789 5.80035966,47.9951047 L6,48 L44,48 C46.1421954,48 47.8910789,46.3160315 47.9951047,44.1996403 L48,44 L48,6 C48,3.85780461 46.3160315,2.10892112 44.1996403,2.00489531 L44,2 Z" id="Rectangle"></path>
                <path d="M33.9999571,19.0000358 L33.9999571,18.7160399 C33.9999571,18.4055853 33.8740724,18.1241528 33.6704596,17.9204943 L29.0795129,13.3295476 C28.8685301,13.1186106 28.5823369,13.0000501 28.2839673,13.0000501 L27.9999714,13.0000501 L27.9999714,19.0000358 L33.9999571,19.0000358 Z M32.8749598,36.9999928 C33.4962809,36.9999928 33.9999571,36.4963167 33.9999571,35.8749955 L33.9999571,20.5000322 L27.6249723,20.5000322 C27.0062146,20.5000322 26.499975,19.9937925 26.499975,19.3750349 L26.499975,13.0000501 L17.1249973,13.0000501 C16.5036762,13.0000501 16,13.5037262 16,14.1250474 L16,35.8749955 C16,36.4963167 16.5036762,36.9999928 17.1249973,36.9999928 L32.8749598,36.9999928 Z M24.250255,34.1498715 C24.2257647,34.1498715 24.2021441,34.1463925 24.1797138,34.1398922 L22.8928516,33.7662664 C22.7874747,33.7356421 22.7103417,33.6383218 22.7103417,33.5230572 C22.7103417,33.4986126 22.7138207,33.4749921 22.7203209,33.4526075 L25.6002884,23.5326635 C25.6309127,23.4272408 25.7282788,23.3501078 25.8434976,23.3501078 C25.8679879,23.3501078 25.8916085,23.3535868 25.9139931,23.360087 L27.2008095,23.7337128 C27.3061864,23.7642914 27.3833194,23.8616117 27.3833194,23.9768305 C27.3833194,24.0013208 27.3797946,24.0249414 27.3732944,24.0473718 L24.4933269,33.9673158 C24.4627942,34.0727385 24.3654738,34.1498715 24.250255,34.1498715 Z M21.5906086,31.8537801 C21.5236837,31.8537801 21.4627555,31.8276419 21.4174828,31.7852073 L18.3768864,28.9346739 C18.3276312,28.8884399 18.2968237,28.8227968 18.2968237,28.7499667 C18.2968237,28.6771825 18.3276312,28.6115393 18.3768864,28.5653053 L21.4174828,25.714772 C21.4627555,25.6723374 21.523638,25.6462907 21.5905171,25.6462907 C21.6633471,25.6462907 21.7290818,25.6770065 21.77527,25.7263076 L22.6930382,26.7052786 C22.7354728,26.7505513 22.7614737,26.8114338 22.7614737,26.8783129 C22.7614737,26.9540268 22.7283317,27.0220046 22.6755975,27.0684217 L20.7648507,28.7500125 L22.6755975,30.4316034 C22.7283317,30.4780205 22.7616111,30.5459982 22.7616111,30.6216664 C22.7616111,30.6885455 22.7354728,30.7494737 22.6930382,30.7947464 L21.77527,31.7736717 C21.7290818,31.8229727 21.6633929,31.8537801 21.5906086,31.8537801 Z M28.5031898,31.8536886 C28.4303598,31.8536886 28.3646251,31.8229727 28.3184368,31.7736717 L27.4006228,30.7947006 C27.3581883,30.7494279 27.3321873,30.6885455 27.3321873,30.6216664 C27.3321873,30.5459524 27.3653293,30.4779747 27.4180636,30.4315576 L29.3288562,28.7500125 L27.4181094,27.0684217 C27.3653751,27.0220046 27.3320958,26.9540268 27.3320958,26.8783587 C27.3320958,26.8114795 27.358234,26.7505513 27.4006686,26.7052786 L28.3184826,25.7263076 C28.3646708,25.6770065 28.4303598,25.6461991 28.503144,25.6461991 C28.5700689,25.6461991 28.6309971,25.6723374 28.6762698,25.714772 L31.7168662,28.5653053 C31.7661215,28.6115393 31.7969289,28.6771825 31.7969289,28.7499667 C31.7969289,28.8227968 31.7661215,28.8884399 31.7168204,28.9346739 L28.676224,31.7852073 C28.6309513,31.8276419 28.5700689,31.8536886 28.5031898,31.8536886 Z" id=""></path>
            </g>
        </g>
    </g>
</svg>