<?xml version="1.0" encoding="UTF-8"?>
<svg width="50px" height="50px" viewBox="0 0 50 50" version="1.1" xmlns="http://www.w3.org/2000/svg" xmlns:xlink="http://www.w3.org/1999/xlink">
    <title>Emoji</title>
    <g id="Icons" stroke="none" stroke-width="1" fill="#5D63F1" fill-rule="evenodd">
        <g transform="translate(-320.000000, -50.000000)" fill="#5D63F1" fill-rule="nonzero" id="emoji">
            <g transform="translate(320.000000, 50.000000)" id="paths">
                <path d="M44,0 C47.3137085,0 50,2.6862915 50,6 L50,44 C50,47.3137085 47.3137085,50 44,50 L6,50 C2.6862915,50 0,47.3137085 0,44 L0,6 C0,2.6862915 2.6862915,0 6,0 L44,0 Z M44,2 L6,2 C3.85780461,2 2.10892112,3.68396847 2.00489531,5.80035966 L2,6 L2,44 C2,46.1421954 3.68396847,47.8910789 5.80035966,47.9951047 L6,48 L44,48 C46.1421954,48 47.8910789,46.3160315 47.9951047,44.1996403 L48,44 L48,6 C48,3.85780461 46.3160315,2.10892112 44.1996403,2.00489531 L44,2 Z" id="Rectangle"></path>
                <path d="M24.9999723,36.6249937 C31.421832,36.6249937 36.6249446,31.4218811 36.6249446,25.0000215 C36.6249446,18.5781618 31.421832,13.3750492 24.9999723,13.3750492 C18.5781126,13.3750492 13.375,18.5781618 13.375,25.0000215 C13.375,31.4218811 18.5781126,36.6249937 24.9999723,36.6249937 Z M27.9859118,24.5922008 C27.4046449,23.7297303 27.2780735,22.8625449 27.2499669,22.0000286 C27.2734044,21.1375124 27.4046449,20.2703269 27.9859118,19.4078564 C28.3421427,18.8734644 29.1437307,18.8594111 29.5187298,19.4078564 C30.099951,20.2703269 30.2265223,21.1375124 30.2546289,22.0000286 C30.2311915,22.8625449 30.099951,23.7297303 29.5187298,24.5922008 C29.1624532,25.1265928 28.3609109,25.1406461 27.9859118,24.5922008 Z M20.4859297,24.5922008 C19.9046628,23.7297303 19.7780914,22.8625449 19.7499848,22.0000286 C19.7734222,21.1375124 19.9046628,20.2703269 20.4859297,19.4078564 C20.8421605,18.8734644 21.6437486,18.8594111 22.0187477,19.4078564 C22.5999689,20.2703269 22.7265402,21.1375124 22.7546468,22.0000286 C22.7312094,22.8625449 22.5999689,23.7297303 22.0187477,24.5922008 C21.6624711,25.1265928 20.8609288,25.1406461 20.4859297,24.5922008 Z M24.9999723,33.2500018 C22.1593724,33.2500018 18.6952998,31.4547027 18.2593725,28.8765839 C18.1656227,28.3234693 18.6952998,27.8640588 19.2296919,28.0375051 C20.6452769,28.4922006 22.7499776,28.7500125 24.9999723,28.7500125 C27.2499669,28.7500125 29.3546677,28.4922006 30.7702527,28.0375051 C31.3046448,27.8640588 31.8296527,28.3234693 31.7405721,28.8765839 C31.3046448,31.4547027 27.8405722,33.2500018 24.9999723,33.2500018 Z" id=""></path>
            </g>
        </g>
    </g>
</svg>