<?xml version="1.0" encoding="UTF-8"?>
<svg width="50px" height="50px" viewBox="0 0 50 50" version="1.1" xmlns="http://www.w3.org/2000/svg" xmlns:xlink="http://www.w3.org/1999/xlink">
    <title>Moblog</title>
    <g id="Icons" stroke="none" stroke-width="1" fill="#5D63F1" fill-rule="evenodd">
        <g transform="translate(-770.000000, -50.000000)" fill="#5D63F1" fill-rule="nonzero" id="moblog">
            <g transform="translate(770.000000, 50.000000)" id="paths">
                <path d="M44,0 C47.3137085,0 50,2.6862915 50,6 L50,44 C50,47.3137085 47.3137085,50 44,50 L6,50 C2.6862915,50 0,47.3137085 0,44 L0,6 C0,2.6862915 2.6862915,0 6,0 L44,0 Z M44,2 L6,2 C3.85780461,2 2.10892112,3.68396847 2.00489531,5.80035966 L2,6 L2,44 C2,46.1421954 3.68396847,47.8910789 5.80035966,47.9951047 L6,48 L44,48 C46.1421954,48 47.8910789,46.3160315 47.9951047,44.1996403 L48,44 L48,6 C48,3.85780461 46.3160315,2.10892112 44.1996403,2.00489531 L44,2 Z" id="Rectangle"></path>
                <path d="M18.2223386,34.4606465 C16.0968554,27.6631926 19.2304692,25.858601 26.4999678,25.7540022 L26.4999678,29.8750098 C26.4999678,30.8453292 27.6390184,31.3493716 28.3602692,30.7264482 L36.6104784,23.6014652 C37.129398,23.1532241 37.1301305,22.3474246 36.6104784,21.8985884 L28.3602692,14.7742921 C27.6381487,14.1506363 26.4999678,14.6569217 26.4999678,15.6257305 L26.4999678,19.3782392 C18.9705058,19.4644359 13,20.9734502 13,28.1090534 C13,30.9890666 14.8553575,33.842255 16.9062254,35.3339659 C17.5462233,35.7994647 18.4583152,35.2152223 18.2223386,34.4606465 Z" id=""></path>
            </g>
        </g>
    </g>
</svg>