<?xml version="1.0" encoding="UTF-8"?>
<svg width="50px" height="50px" viewBox="0 0 50 50" version="1.1" xmlns="http://www.w3.org/2000/svg" xmlns:xlink="http://www.w3.org/1999/xlink">
    <title>RSS</title>
    <g id="Icons" stroke="none" stroke-width="1" fill="#5D63F1" fill-rule="evenodd">
        <g transform="translate(-50.000000, -140.000000)" fill="#5D63F1" fill-rule="nonzero" id="rss">
            <g transform="translate(50.000000, 140.000000)" id="paths">
                <path d="M44,0 C47.3137085,0 50,2.6862915 50,6 L50,44 C50,47.3137085 47.3137085,50 44,50 L6,50 C2.6862915,50 0,47.3137085 0,44 L0,6 C0,2.6862915 2.6862915,0 6,0 L44,0 Z M44,2 L6,2 C3.85780461,2 2.10892112,3.68396847 2.00489531,5.80035966 L2,6 L2,44 C2,46.1421954 3.68396847,47.8910789 5.80035966,47.9951047 L6,48 L44,48 C46.1421954,48 47.8910789,46.3160315 47.9951047,44.1996403 L48,44 L48,6 C48,3.85780461 46.3160315,2.10892112 44.1996403,2.00489531 L44,2 Z" id="Rectangle"></path>
                <path d="M34.7492651,35.5000422 C35.1726955,35.5000422 35.5146899,35.1497165 35.4994922,34.7264234 C35.1059995,23.7661224 26.2873864,14.8959196 15.273573,14.5005043 C14.8502799,14.4853065 14.5,14.827301 14.5,15.2507771 L14.5,17.5039761 C14.5,17.908272 14.820388,18.2373118 15.2243635,18.2539285 C24.1858442,18.6213746 31.3787134,25.815617 31.7461137,34.7756787 C31.7626847,35.1796542 32.0917244,35.5000422 32.4960661,35.5000422 L34.7492651,35.5000422 Z M27.988066,35.4999506 C28.416898,35.4999506 28.7609981,35.1411106 28.7378353,34.7129194 C28.3462194,27.46608 22.5416526,21.654189 15.287077,21.2621611 C14.8588859,21.2389983 14.5,21.5830985 14.5,22.0118847 L14.5,24.2651294 C14.5,24.6595834 14.804229,24.9903627 15.1978133,25.0159516 C20.4399272,25.3573967 24.6418673,29.548854 24.9839991,34.8021374 C25.0096338,35.1957216 25.340413,35.4999506 25.7348212,35.4999506 L27.988066,35.4999506 Z M17.5018697,35.4999964 C19.1597942,35.4999964 20.5037851,34.1560055 20.5037851,32.498081 C20.5037851,30.8402022 19.15984,29.4961655 17.5019155,29.4961655 C15.8439909,29.4961655 14.5,30.8401565 14.5,32.498081 C14.5,34.1560055 15.8439452,35.4999964 17.5018697,35.4999964 Z" id=""></path>
            </g>
        </g>
    </g>
</svg>