<svg xmlns="http://www.w3.org/2000/svg" xmlns:xlink="http://www.w3.org/1999/xlink" width="24pt" height="24pt" viewBox="0 0 24 24" version="1.1">
<g id="surface1">
<path style=" stroke:none;fill-rule:nonzero;fill:#8f90b0;fill-opacity:1;" d="M 9 1.5 L 6 1.5 C 5.171875 1.5 4.5 2.171875 4.5 3 L 4.5 6 C 4.5 6.828125 5.171875 7.5 6 7.5 L 9 7.5 C 9.828125 7.5 10.5 6.828125 10.5 6 L 10.5 3 C 10.5 2.171875 9.828125 1.5 9 1.5 Z M 9 9 L 6 9 C 5.171875 9 4.5 9.671875 4.5 10.5 L 4.5 13.5 C 4.5 14.328125 5.171875 15 6 15 L 9 15 C 9.828125 15 10.5 14.328125 10.5 13.5 L 10.5 10.5 C 10.5 9.671875 9.828125 9 9 9 Z M 9 16.5 L 6 16.5 C 5.171875 16.5 4.5 17.171875 4.5 18 L 4.5 21 C 4.5 21.828125 5.171875 22.5 6 22.5 L 9 22.5 C 9.828125 22.5 10.5 21.828125 10.5 21 L 10.5 18 C 10.5 17.171875 9.828125 16.5 9 16.5 Z M 18 1.5 L 15 1.5 C 14.171875 1.5 13.5 2.171875 13.5 3 L 13.5 6 C 13.5 6.828125 14.171875 7.5 15 7.5 L 18 7.5 C 18.828125 7.5 19.5 6.828125 19.5 6 L 19.5 3 C 19.5 2.171875 18.828125 1.5 18 1.5 Z M 18 9 L 15 9 C 14.171875 9 13.5 9.671875 13.5 10.5 L 13.5 13.5 C 13.5 14.328125 14.171875 15 15 15 L 18 15 C 18.828125 15 19.5 14.328125 19.5 13.5 L 19.5 10.5 C 19.5 9.671875 18.828125 9 18 9 Z M 18 16.5 L 15 16.5 C 14.171875 16.5 13.5 17.171875 13.5 18 L 13.5 21 C 13.5 21.828125 14.171875 22.5 15 22.5 L 18 22.5 C 18.828125 22.5 19.5 21.828125 19.5 21 L 19.5 18 C 19.5 17.171875 18.828125 16.5 18 16.5 Z M 18 16.5 "/>
</g>
</svg>