<?xml version="1.0" encoding="UTF-8"?>
<svg width="24px" height="24px" viewBox="0 0 24 24" version="1.1" xmlns="http://www.w3.org/2000/svg" xmlns:xlink="http://www.w3.org/1999/xlink">
    <title>ee-pro-front-edit-icon</title>
    <g id="ee-pro-front-edit-icon" stroke="none" stroke-width="1" fill="none" fill-rule="evenodd">
        <rect id="Rectangle" stroke="#5D63F1" fill="#FFFFFF" x="0.5" y="0.5" width="23" height="23" rx="3"></rect>
        <path d="M16.5890327,9.9109566 L17.6695126,8.83047669 C18.110132,8.38985732 18.110132,7.67737275 17.6695126,7.23908797 L16.2609085,5.83048384 C15.8202891,5.39222195 15.1077816,5.39222195 14.6695197,5.83048384 L13.5890398,6.91096375 C13.4788793,7.02112431 13.4788793,7.19923973 13.5890398,7.3094003 L16.1905961,9.9109566 C16.3007567,10.0211172 16.4788721,10.0211172 16.5890327,9.9109566 Z M6.6609405,17.4929698 L9.50858996,16.9937568 L15.6632536,10.8390702 C15.7734142,10.7289097 15.7734142,10.5507942 15.6632536,10.4406337 L13.0616973,7.83907738 C12.9492022,7.72891681 12.7710868,7.72891681 12.6609262,7.83907738 L6.50623964,13.9937639 L6.00938413,16.8414134 C5.94140639,17.2257737 6.27655726,17.55859 6.6609405,17.4929698 Z M7.67577725,16.5531145 L6.9468819,15.8242192 L7.21172044,14.312504 L8.06249508,14.312504 L8.06249508,15.4375013 L9.1874924,15.4375013 L9.1874924,16.288276 L7.67577725,16.5531145 Z" id="ï€" fill="#5D63F1" fill-rule="nonzero"></path>
    </g>
</svg>
