<?xml version="1.0" encoding="UTF-8"?>
<svg width="10px" height="10px" viewBox="0 0 10 10" version="1.1" xmlns="http://www.w3.org/2000/svg" xmlns:xlink="http://www.w3.org/1999/xlink">
    <title>expand</title>
    <g id="Page-1" stroke="none" stroke-width="1" fill="none" fill-rule="evenodd">
        <path d="M2,4 L2,2 L4,2 L4,2.08721929e-14 L1,2.08721929e-14 C0.267504883,2.08721929e-14 2.08721929e-14,0.267504883 2.08721929e-14,1 L2.08721929e-14,4 L2,4 Z M10,4 L10,1 C10,0.267504883 9.73249512,2.08721929e-14 9,2.08721929e-14 L6,2.08721929e-14 L6,2 L8,2 L8,4 L10,4 Z M9,10 C9.73249512,10 10,9.73249512 10,9 L10,6 L8,6 L8,8 L6,8 L6,10 L9,10 Z M4,10 L4,8 L2,8 L2,6 L2.08721929e-14,6 L2.08721929e-14,9 C2.08721929e-14,9.73249512 0.267504883,10 1,10 L4,10 Z" id="ï¥" fill="#A2A3BE" fill-rule="nonzero"></path>
    </g>
</svg>