<?xml version="1.0" encoding="UTF-8"?>
<svg width="352px" height="352px" viewBox="0 0 352 352" version="1.1" xmlns="http://www.w3.org/2000/svg" xmlns:xlink="http://www.w3.org/1999/xlink">
    <title>modal-close</title>
    <g id="Page-1" stroke="none" stroke-width="1" fill="none" fill-rule="evenodd">
        <path d="M320.549604,342.789808 L342.789808,320.549604 C355.070064,308.269348 355.070064,288.360196 342.789808,276.070174 L242.719634,176 L342.789808,75.9298263 C355.070064,63.6505465 355.070064,43.7404178 342.789808,31.4503958 L320.549604,9.2101923 C308.269348,-3.0700641 288.360196,-3.0700641 276.070174,9.2101923 L176,109.280366 L75.9298263,9.2101923 C63.6505465,-3.0700641 43.7404178,-3.0700641 31.4503958,9.2101923 L9.2101923,31.4503958 C-3.0700641,43.7306522 -3.0700641,63.6398043 9.2101923,75.9298263 L109.280366,176 L9.2101923,276.070174 C-3.0700641,288.349454 -3.0700641,308.259582 9.2101923,320.549604 L31.4503958,342.789808 C43.7306522,355.070064 63.6505465,355.070064 75.9298263,342.789808 L176,242.719634 L276.070174,342.789808 C288.349454,355.070064 308.269348,355.070064 320.549604,342.789808 Z" id="ï€" fill="#A2A3BE" fill-rule="nonzero"></path>
    </g>
</svg>