<?xml version="1.0" encoding="UTF-8"?>
<svg width="11px" height="12px" viewBox="0 0 11 12" version="1.1" xmlns="http://www.w3.org/2000/svg" xmlns:xlink="http://www.w3.org/1999/xlink">
    <title>unsaved-changes</title>
    <g id="Page-1" stroke="none" stroke-width="1" fill="none" fill-rule="evenodd">
        <path d="M5.49998689,11.2031221 C8.44241609,11.2031221 10.8280992,8.81829925 10.8280992,5.87500983 C10.8280992,2.93344084 8.44241609,0.546897538 5.49998689,0.546897538 C2.55755768,0.546897538 0.17187459,2.93344084 0.17187459,5.87500983 C0.17187459,8.81829925 2.55755768,11.2031221 5.49998689,11.2031221 Z M6.02148528,6.5625082 L4.9784885,6.5625082 C4.84156789,6.5625082 4.72852342,6.45546423 4.72107525,6.31875344 L4.5617052,3.3968854 C4.55364858,3.24920166 4.67120392,3.12501639 4.81909747,3.12501639 L6.18085532,3.12501639 C6.32874887,3.12501639 6.44632519,3.24920166 6.43826857,3.3968854 L6.27889853,6.31875344 C6.27145035,6.45546423 6.15840588,6.5625082 6.02148528,6.5625082 Z M5.49998689,8.92578381 C4.95417177,8.92578381 4.51170799,8.48332004 4.51170799,7.93750492 C4.51170799,7.3916898 4.95417177,6.94922602 5.49998689,6.94922602 C6.04580201,6.94922602 6.48826578,7.3916898 6.48826578,7.93750492 C6.48826578,8.48332004 6.04580201,8.92578381 5.49998689,8.92578381 Z" id="ïª" fill="#FFB40B" fill-rule="nonzero"></path>
    </g>
</svg>