<?xml version="1.0" encoding="UTF-8"?>
<svg width="50px" height="50px" viewBox="0 0 50 50" version="1.1" xmlns="http://www.w3.org/2000/svg" xmlns:xlink="http://www.w3.org/1999/xlink">
    <title>Pages</title>
    <g id="Icons" stroke="none" stroke-width="1" fill="#5D63F1" fill-rule="evenodd">
        <g transform="translate(-860.000000, -50.000000)" fill="#5D63F1" fill-rule="nonzero" id="pages">
            <g transform="translate(860.000000, 50.000000)" id="paths">
                <path d="M44,0 C47.3137085,0 50,2.6862915 50,6 L50,44 C50,47.3137085 47.3137085,50 44,50 L6,50 C2.6862915,50 0,47.3137085 0,44 L0,6 C0,2.6862915 2.6862915,0 6,0 L44,0 Z M44,2 L6,2 C3.85780461,2 2.10892112,3.68396847 2.00489531,5.80035966 L2,6 L2,44 C2,46.1421954 3.68396847,47.8910789 5.80035966,47.9951047 L6,48 L44,48 C46.1421954,48 47.8910789,46.3160315 47.9951047,44.1996403 L48,44 L48,6 C48,3.85780461 46.3160315,2.10892112 44.1996403,2.00489531 L44,2 Z" id="Rectangle"></path>
                <path d="M34.3749526,32.5000036 C34.9962738,32.5000036 35.4999499,31.9963274 35.4999499,31.3750063 L35.4999499,19.0000358 L30.6249616,19.0000358 C30.0062039,19.0000358 29.4999642,18.4937961 29.4999642,17.8750384 L29.4999642,13.0000501 L21.624983,13.0000501 C21.0036619,13.0000501 20.4999857,13.5037262 20.4999857,14.1250474 L20.4999857,31.3750063 C20.4999857,31.9963274 21.0036619,32.5000036 21.624983,32.5000036 L34.3749526,32.5000036 Z M35.4999499,17.5000393 L35.4999499,17.2160434 C35.4999499,16.9055889 35.374111,16.6242022 35.1704524,16.4205436 L32.0794564,13.3295476 C31.8757978,13.125889 31.5944111,13.0000501 31.2839566,13.0000501 L30.9999607,13.0000501 L30.9999607,17.5000393 L35.4999499,17.5000393 Z M28.3749669,36.9999928 C28.9962881,36.9999928 29.4999642,36.4963167 29.4999642,35.8749955 L29.4999642,34 L21.624983,34 C20.1775377,34 18.9999893,32.8224515 18.9999893,31.3750063 L18.9999893,17.5000393 L15.6249973,17.5000393 C15.0036762,17.5000393 14.5,18.0037155 14.5,18.6250367 L14.5,35.8749955 C14.5,36.4963167 15.0036762,36.9999928 15.6249973,36.9999928 L28.3749669,36.9999928 Z" id=""></path>
            </g>
        </g>
    </g>
</svg>