<?xml version="1.0" encoding="UTF-8"?>
<svg width="50px" height="50px" viewBox="0 0 50 50" version="1.1" xmlns="http://www.w3.org/2000/svg" xmlns:xlink="http://www.w3.org/1999/xlink">
    <title>Simple Commerce</title>
    <g id="Icons" stroke="none" stroke-width="1" fill="#5D63F1" fill-rule="evenodd">
        <g transform="translate(-230.000000, -140.000000)" fill="#5D63F1" fill-rule="nonzero" id="simple-commerce">
            <g transform="translate(230.000000, 140.000000)" id="paths">
                <path d="M44,0 C47.3137085,0 50,2.6862915 50,6 L50,44 C50,47.3137085 47.3137085,50 44,50 L6,50 C2.6862915,50 0,47.3137085 0,44 L0,6 C0,2.6862915 2.6862915,0 6,0 L44,0 Z M44,2 L6,2 C3.85780461,2 2.10892112,3.68396847 2.00489531,5.80035966 L2,6 L2,44 C2,46.1421954 3.68396847,47.8910789 5.80035966,47.9951047 L6,48 L44,48 C46.1421954,48 47.8910789,46.3160315 47.9951047,44.1996403 L48,44 L48,6 C48,3.85780461 46.3160315,2.10892112 44.1996403,2.00489531 L44,2 Z" id="Rectangle"></path>
                <path d="M33.5485467,34.4999964 C34.6682339,34.4999964 35.617542,33.6766189 35.7758821,32.5681926 L36.9999392,24.0000215 L37.3749383,24.0000215 C37.9962595,24.0000215 38.4999356,23.4963453 38.4999356,22.8750241 L38.4999356,22.1250259 C38.4999356,21.5037048 37.9962595,21.0000286 37.3749383,21.0000286 L34.2183449,21.0000286 L29.2130773,14.1177513 C28.7258348,13.44777 27.7876046,13.299638 27.1177148,13.7869263 C26.4477335,14.2741688 26.2995558,15.2123532 26.786844,15.8822887 L30.5088658,21.0000286 L19.4910698,21.0000286 L23.2130916,15.8823345 C23.7003798,15.2123532 23.5522479,14.2742146 22.8822666,13.7869721 C22.2122395,13.2996838 21.2741466,13.4478616 20.7869041,14.1177971 L15.7815907,21.0000286 L12.6249973,21.0000286 C12.0036762,21.0000286 11.5,21.5037048 11.5,22.1250259 L11.5,22.8750241 C11.5,23.4963453 12.0036762,24.0000215 12.6249973,24.0000215 L13,24.0000215 L14.2240078,32.5681926 C14.3823936,33.6766189 15.3317017,34.4999964 16.451389,34.4999964 L33.5485467,34.4999964 Z M24.9999678,31.5000036 C24.3786467,31.5000036 23.8749705,30.9963274 23.8749705,30.3750063 L23.8749705,25.1250188 C23.8749705,24.5036976 24.3786467,24.0000215 24.9999678,24.0000215 C25.621289,24.0000215 26.1249651,24.5036976 26.1249651,25.1250188 L26.1249651,30.3750063 C26.1249651,30.9963274 25.621289,31.5000036 24.9999678,31.5000036 Z M30.2499553,31.5000036 C29.6286341,31.5000036 29.124958,30.9963274 29.124958,30.3750063 L29.124958,25.1250188 C29.124958,24.5036976 29.6286341,24.0000215 30.2499553,24.0000215 C30.8712764,24.0000215 31.3749526,24.5036976 31.3749526,25.1250188 L31.3749526,30.3750063 C31.3749526,30.9963274 30.8712764,31.5000036 30.2499553,31.5000036 Z M19.7499803,31.5000036 C19.1286592,31.5000036 18.624983,30.9963274 18.624983,30.3750063 L18.624983,25.1250188 C18.624983,24.5036976 19.1286592,24.0000215 19.7499803,24.0000215 C20.3713015,24.0000215 20.8749776,24.5036976 20.8749776,25.1250188 L20.8749776,30.3750063 C20.8749776,30.9963274 20.3713015,31.5000036 19.7499803,31.5000036 Z" id=""></path>
            </g>
        </g>
    </g>
</svg>