<?xml version="1.0" encoding="UTF-8"?>
<svg width="50px" height="50px" viewBox="0 0 50 50" version="1.1" xmlns="http://www.w3.org/2000/svg" xmlns:xlink="http://www.w3.org/1999/xlink">
    <title>pro-search</title>
    <g id="Icons" stroke="none" stroke-width="1" fill="none" fill-rule="evenodd">
        <g transform="translate(-500.000000, -230.000000)" id="pro-search">
            <g transform="translate(500.000000, 230.000000)" id="paths">
                <rect id="Rectangle" stroke="#5D63F1" stroke-width="2" x="1" y="1" width="48" height="48" rx="6"></rect>
                <path d="M35.3405534,36.6718686 L36.6671494,35.3453184 C37.1077459,34.9046762 37.1077459,34.1921687 36.6718186,33.7515722 L31.998383,29.0781367 C31.7874461,28.8671997 31.5015275,28.7500125 31.2015099,28.7500125 L30.4374584,28.7500125 C31.731187,27.0953381 32.4999535,25.0140748 32.4999535,22.7500268 C32.4999535,17.3640839 28.1359197,13.0000501 22.7499768,13.0000501 C17.3640338,13.0000501 13,17.3640839 13,22.7500268 C13,28.1359698 17.3640338,32.5000036 22.7499768,32.5000036 C25.0140247,32.5000036 27.095288,31.7312371 28.7499624,30.4375085 L28.7499624,31.20156 C28.7499624,31.5015776 28.8671497,31.7874961 29.0780867,31.9984331 L33.7515222,36.6718686 C34.1921187,37.1125109 34.9046261,37.1125109 35.3405534,36.6718686 Z M22.7499768,28.7500125 C19.435913,28.7500125 16.7499911,26.0687598 16.7499911,22.7500268 C16.7499911,19.4359631 19.4312438,16.7500411 22.7499768,16.7500411 C26.0640405,16.7500411 28.7499624,19.4312939 28.7499624,22.7500268 C28.7499624,26.0640906 26.0687097,28.7500125 22.7499768,28.7500125 Z" id="" fill="#5D63F1" fill-rule="nonzero"></path>
            </g>
        </g>
    </g>
</svg>
