<?xml version="1.0" encoding="UTF-8"?>
<svg width="50px" height="50px" viewBox="0 0 50 50" version="1.1" xmlns="http://www.w3.org/2000/svg" xmlns:xlink="http://www.w3.org/1999/xlink">
    <title>Email</title>
    <g id="Icons" stroke="none" stroke-width="1" fill="#5D63F1" fill-rule="evenodd">
        <g transform="translate(-230.000000, -50.000000)" fill="#5D63F1" fill-rule="nonzero" id="email">
            <g transform="translate(230.000000, 50.000000)" id="paths">
                <path d="M44,0 C47.3137085,0 50,2.6862915 50,6 L50,44 C50,47.3137085 47.3137085,50 44,50 L6,50 C2.6862915,50 0,47.3137085 0,44 L0,6 C0,2.6862915 2.6862915,0 6,0 L44,0 Z M44,2 L6,2 C3.85780461,2 2.10892112,3.68396847 2.00489531,5.80035966 L2,6 L2,44 C2,46.1421954 3.68396847,47.8910789 5.80035966,47.9951047 L6,48 L44,48 C46.1421954,48 47.8910789,46.3160315 47.9951047,44.1996403 L48,44 L48,6 C48,3.85780461 46.3160315,2.10892112 44.1996403,2.00489531 L44,2 Z" id="Rectangle"></path>
                <path d="M32.4999535,25.1587559 L36.9999428,21.9080007 L36.9999428,21.4087648 C36.9999428,20.7178638 36.6821182,20.0648654 36.1379301,19.6383223 C35.7230598,19.3129904 35.329796,19.0069303 34.7499481,18.5690804 L34.7499481,16.5000393 C34.7499481,15.257397 33.7425958,14.2500447 32.4999535,14.2500447 L28.8648151,14.2500447 C28.7223136,14.1469108 28.589654,14.0503687 28.4410643,13.9425656 C27.6530718,13.3673869 26.087478,11.9836622 24.9999714,12.0000501 C23.9124648,11.9836622 22.3473288,13.3673869 21.5588785,13.9425656 C21.4102888,14.0503687 21.2776292,14.1469108 21.1351277,14.2500447 L17.4999893,14.2500447 C16.257347,14.2500447 15.2499946,15.257397 15.2499946,16.5000393 L15.2499946,18.5690804 C14.6701468,19.0064268 14.2768829,19.3129904 13.8620127,19.6383223 C13.3364097,20.050217 13,20.6898945 13,21.4087648 L13,21.9080007 L17.4999893,25.1587559 L17.4999893,16.5000393 L32.4999535,16.5000393 L32.4999535,25.1587559 Z M28.7499624,22.1250259 C29.1643291,22.1250259 29.4999607,21.7893944 29.4999607,21.3750313 L29.4999607,20.6250295 C29.4999607,20.2106628 29.1643291,19.8750313 28.7499624,19.8750313 L21.2499803,19.8750313 C20.8356136,19.8750313 20.4999821,20.2106628 20.4999821,20.6250295 L20.4999821,21.3750313 C20.4999821,21.7893944 20.8356136,22.1250259 21.2499803,22.1250259 L28.7499624,22.1250259 Z M34.7499481,35.9999928 C35.9925904,35.9999928 36.9999428,34.9926405 36.9999428,33.7499982 L36.9999428,23.759101 L27.1965451,30.8409628 C26.5393354,31.3152964 25.7696534,31.5529667 24.9999714,31.5529667 C24.2302894,31.5529667 23.4606074,31.3157999 22.8033976,30.8409628 L13,23.759101 L13,33.7499982 C13,34.9926405 14.0073523,35.9999928 15.2499946,35.9999928 L34.7499481,35.9999928 Z M28.7499624,26.6250152 C29.1643291,26.6250152 29.4999607,26.2893837 29.4999607,25.8750206 L29.4999607,25.1250188 C29.4999607,24.7106521 29.1643291,24.3750206 28.7499624,24.3750206 L21.2499803,24.3750206 C20.8356136,24.3750206 20.4999821,24.7106521 20.4999821,25.1250188 L20.4999821,25.8750206 C20.4999821,26.2893837 20.8356136,26.6250152 21.2499803,26.6250152 L28.7499624,26.6250152 Z" id=""></path>
            </g>
        </g>
    </g>
</svg>