<?xml version="1.0" encoding="UTF-8"?>
<svg width="50px" height="50px" viewBox="0 0 50 50" version="1.1" xmlns="http://www.w3.org/2000/svg" xmlns:xlink="http://www.w3.org/1999/xlink">
    <title>Spam</title>
    <g id="Icons" stroke="none" stroke-width="1" fill="#5D63F1" fill-rule="evenodd">
        <g transform="translate(-320.000000, -140.000000)" fill="#5D63F1" fill-rule="nonzero" id="spam">
            <g transform="translate(320.000000, 140.000000)" id="paths">
                <path d="M44,0 C47.3137085,0 50,2.6862915 50,6 L50,44 C50,47.3137085 47.3137085,50 44,50 L6,50 C2.6862915,50 0,47.3137085 0,44 L0,6 C0,2.6862915 2.6862915,0 6,0 L44,0 Z M44,2 L6,2 C3.85780461,2 2.10892112,3.68396847 2.00489531,5.80035966 L2,6 L2,44 C2,46.1421954 3.68396847,47.8910789 5.80035966,47.9951047 L6,48 L44,48 C46.1421954,48 47.8910789,46.3160315 47.9951047,44.1996403 L48,44 L48,6 C48,3.85780461 46.3160315,2.10892112 44.1996403,2.00489531 L44,2 Z" id="Rectangle"></path>
                <path d="M24.9999714,36.6249937 C31.4202289,36.6249937 36.6249437,31.420279 36.6249437,25.0000215 C36.6249437,18.5797639 31.4202747,13.3750492 24.9999714,13.3750492 C18.5797139,13.3750492 13.3749991,18.5797182 13.3749991,25.0000215 C13.3749991,31.4203248 18.5797139,36.6249937 24.9999714,36.6249937 Z M32.0680087,29.9466955 L20.0532516,17.9320299 C23.344061,15.6184978 28.0326027,15.8351111 31.098788,18.9012048 C34.1666213,21.9690839 34.3800302,26.6581291 32.0680087,29.9466955 Z M18.9011548,31.0988381 C15.8333215,28.0309591 15.6199126,23.3419138 17.931934,20.0533475 L29.9466912,32.068013 C26.6559275,34.3815451 21.9673401,34.1649776 18.9011548,31.0988381 Z" id=""></path>
            </g>
        </g>
    </g>
</svg>