<?xml version="1.0" encoding="UTF-8"?>
<svg width="50px" height="50px" viewBox="0 0 50 50" version="1.1" xmlns="http://www.w3.org/2000/svg" xmlns:xlink="http://www.w3.org/1999/xlink">
    <title>Block and Allow</title>
    <g id="Icons" stroke="none" stroke-width="1" fill="#5D63F1" fill-rule="evenodd">
        <g transform="translate(-140.000000, -50.000000)" fill="#5D63F1" fill-rule="nonzero" id="block-and-allow">
            <g transform="translate(140.000000, 50.000000)" id="paths">
                <path d="M44,0 C47.3137085,0 50,2.6862915 50,6 L50,44 C50,47.3137085 47.3137085,50 44,50 L6,50 C2.6862915,50 0,47.3137085 0,44 L0,6 C0,2.6862915 2.6862915,0 6,0 L44,0 Z M44,2 L6,2 C3.85780461,2 2.10892112,3.68396847 2.00489531,5.80035966 L2,6 L2,44 C2,46.1421954 3.68396847,47.8910789 5.80035966,47.9951047 L6,48 L44,48 C46.1421954,48 47.8910789,46.3160315 47.9951047,44.1996403 L48,44 L48,6 C48,3.85780461 46.3160315,2.10892112 44.1996403,2.00489531 L44,2 Z" id="Rectangle"></path>
                <path d="M24.9999785,36.9999928 C27.878115,36.9999928 30.2771571,34.9712349 30.8597973,32.2679637 C32.6757415,31.6886194 33.9999571,30.0081272 33.9999571,28.0000143 L30.9999642,28.0000143 L30.9999642,26.224399 C32.7437192,25.6047258 33.9999571,23.9565974 33.9999571,22.0000286 L30.9999642,22.0000286 L30.9999642,20.2244133 C32.7437192,19.6047401 33.9999571,17.9566117 33.9999571,16.0000501 L30.9999642,16.0000501 L30.9999642,14.5000501 C30.9999642,13.6717709 30.3282434,13.0000501 29.4999678,13.0000501 L20.4999893,13.0000501 C19.6717137,13.0000501 19,13.6717709 19,14.5000501 L19,16.0000501 L16,16.0000501 C16,17.9566117 17.2562378,19.6047401 19,20.2244133 L19,22.0000286 L16,22.0000286 C16,23.9565974 17.2562378,25.6047258 19,26.224399 L19,28.0000143 L16,28.0000143 C16,30.0081272 17.3242156,31.6886194 19.1401597,32.2679637 C19.7228,34.9712349 22.1218421,36.9999928 24.9999785,36.9999928 Z M24.9999785,20.5000322 C23.7573362,20.5000322 22.7499839,19.4926799 22.7499839,18.2500376 C22.7499839,17.0073952 23.7573362,16.0000429 24.9999785,16.0000429 C26.2426208,16.0000429 27.2499732,17.0073952 27.2499732,18.2500376 C27.2499732,19.4926799 26.2426208,20.5000322 24.9999785,20.5000322 Z M24.9999785,26.5000179 C23.7573362,26.5000179 22.7499839,25.4926655 22.7499839,24.2500232 C22.7499839,23.0073809 23.7573362,22.0000286 24.9999785,22.0000286 C26.2426208,22.0000286 27.2499732,23.0073809 27.2499732,24.2500232 C27.2499732,25.4926655 26.2426208,26.5000179 24.9999785,26.5000179 Z M24.9999785,32.5000036 C23.7573362,32.5000036 22.7499839,31.4926512 22.7499839,30.2500089 C22.7499839,29.0073666 23.7573362,28.0000143 24.9999785,28.0000143 C26.2426208,28.0000143 27.2499732,29.0073666 27.2499732,30.2500089 C27.2499732,31.4926512 26.2426208,32.5000036 24.9999785,32.5000036 Z" id=""></path>
            </g>
        </g>
    </g>
</svg>