<?xml version="1.0" encoding="UTF-8"?>
<svg width="50px" height="50px" viewBox="0 0 50 50" version="1.1" xmlns="http://www.w3.org/2000/svg" xmlns:xlink="http://www.w3.org/1999/xlink">
    <title>Rich Text Editor</title>
    <g id="Icons" stroke="none" stroke-width="1" fill="#5D63F1" fill-rule="evenodd">
        <g transform="translate(-500.000000, -140.000000)" fill="#5D63F1" fill-rule="nonzero" id="rte">
            <g transform="translate(500.000000, 140.000000)" id="paths">
                <path d="M44,0 C47.3137085,0 50,2.6862915 50,6 L50,44 C50,47.3137085 47.3137085,50 44,50 L6,50 C2.6862915,50 0,47.3137085 0,44 L0,6 C0,2.6862915 2.6862915,0 6,0 L44,0 Z M44,2 L6,2 C3.85780461,2 2.10892112,3.68396847 2.00489531,5.80035966 L2,6 L2,44 C2,46.1421954 3.68396847,47.8910789 5.80035966,47.9951047 L6,48 L44,48 C46.1421954,48 47.8910789,46.3160315 47.9951047,44.1996403 L48,44 L48,6 C48,3.85780461 46.3160315,2.10892112 44.1996403,2.00489531 L44,2 Z" id="Rectangle"></path>
                <path d="M34.1780654,21.8219132 L36.3390252,19.6609534 C37.2202639,18.7797146 37.2202639,17.3547455 36.3390252,16.4781759 L33.5218169,13.6609677 C32.6405782,12.7844439 31.2155633,12.7844439 30.3390395,13.6609677 L28.1780797,15.8219275 C27.9577585,16.0422486 27.9577585,16.3984795 28.1780797,16.6188006 L33.3811923,21.8219132 C33.6015134,22.0422343 33.9577442,22.0422343 34.1780654,21.8219132 Z M14.321881,36.9859395 L20.0171799,35.9875136 L32.3265073,23.6781405 C32.5468284,23.4578193 32.5468284,23.1015885 32.3265073,22.8812674 L27.1233947,17.6781548 C26.8984044,17.4578336 26.5421735,17.4578336 26.3218524,17.6781548 L14.0124793,29.9875279 L13.0187683,35.6828268 C12.8828128,36.4515475 13.5531145,37.1171801 14.321881,36.9859395 Z M18.8171553,28.9328429 C18.5593434,28.675031 18.5593434,28.2624954 18.8171553,28.0046835 L26.0358881,20.7859507 C26.2937,20.5281388 26.7062356,20.5281388 26.9640475,20.7859507 C27.2218594,21.0437626 27.2218594,21.4562982 26.9640475,21.7141101 L19.7453147,28.9328429 C19.4875028,29.1906548 19.0749672,29.1906548 18.8171553,28.9328429 Z M16.3515545,35.1062291 L14.8937638,33.6484383 L15.4234409,30.625008 L17.1249902,30.625008 L17.1249902,32.8750027 L19.3749848,32.8750027 L19.3749848,34.576552 L16.3515545,35.1062291 Z" id=""></path>
            </g>
        </g>
    </g>
</svg>