<?xml version="1.0" encoding="UTF-8"?>
<svg width="50px" height="50px" viewBox="0 0 50 50" version="1.1" xmlns="http://www.w3.org/2000/svg" xmlns:xlink="http://www.w3.org/1999/xlink">
    <title>RSS Parser</title>
    <g id="Icons" stroke="none" stroke-width="1" fill="#5D63F1" fill-rule="evenodd">
        <g transform="translate(-140.000000, -140.000000)" fill="#5D63F1" fill-rule="nonzero" id="rss-parser">
            <g transform="translate(140.000000, 140.000000)" id="paths">
                <path d="M44,0 C47.3137085,0 50,2.6862915 50,6 L50,44 C50,47.3137085 47.3137085,50 44,50 L6,50 C2.6862915,50 0,47.3137085 0,44 L0,6 C0,2.6862915 2.6862915,0 6,0 L44,0 Z M44,2 L6,2 C3.85780461,2 2.10892112,3.68396847 2.00489531,5.80035966 L2,6 L2,44 C2,46.1421954 3.68396847,47.8910789 5.80035966,47.9951047 L6,48 L44,48 C46.1421954,48 47.8910789,46.3160315 47.9951047,44.1996403 L48,44 L48,6 C48,3.85780461 46.3160315,2.10892112 44.1996403,2.00489531 L44,2 Z" id="Rectangle"></path>
                <path d="M26.499975,13.0000501 L26.499975,19.3750349 C26.499975,19.9937925 27.0062146,20.5000322 27.6249723,20.5000322 L27.6249723,20.5000322 L33.9999571,20.5000322 L33.9999571,35.8749955 C33.9999571,36.4984224 33.4983866,36.9999928 32.8749598,36.9999928 L32.8749598,36.9999928 L17.1249973,36.9999928 C16.5015705,36.9999928 16,36.4984224 16,35.8749955 L16,35.8749955 L16,14.1250474 C16,13.5016205 16.5015705,13.0000501 17.1249973,13.0000501 L17.1249973,13.0000501 L26.499975,13.0000501 Z M19.3262509,22.6252941 C19.07933,22.6164288 18.875,22.8159256 18.875,23.0629533 L18.875,24.3773194 C18.875,24.6131587 19.061893,24.8050985 19.2975454,24.8147916 C24.5250758,25.0291352 28.7209162,29.2257766 28.935233,34.4524792 C28.9448994,34.6881316 29.1368392,34.8750246 29.3727052,34.8750246 L30.6870713,34.8750246 C30.9340724,34.8750246 31.1335691,34.670668 31.1247038,34.423747 C30.8951663,28.0302381 25.7509754,22.8559531 19.3262509,22.6252941 Z M19.3341282,26.569594 C19.0843501,26.5560824 18.875,26.7568074 18.875,27.0069327 L18.875,28.3213255 C18.875,28.5514237 19.0524669,28.7443782 19.2820577,28.7593051 C22.3399576,28.9584814 24.7910893,31.4034982 24.9906661,34.4679135 C25.0056197,34.6975043 25.1985742,34.8749712 25.4286457,34.8749712 L26.7430385,34.8749712 C26.9931905,34.8749712 27.1939156,34.6656478 27.1804039,34.4158697 C26.9519613,30.1885467 23.565964,26.7982769 19.3341282,26.569594 Z M20.6261173,31.3727632 C19.6589947,31.3727632 18.875,32.1567579 18.875,33.1238806 C18.875,34.0910032 19.658968,34.8749979 20.6260906,34.8749979 C21.5932133,34.8749979 22.377208,34.0910032 22.377208,33.1238806 C22.377208,32.1567846 21.59324,31.3727632 20.6261173,31.3727632 Z M28.2858899,13.0000501 C28.5859075,13.0000501 28.871826,13.1172373 29.082763,13.3281743 L29.082763,13.3281743 L33.6718329,17.9219133 C33.8827699,18.1328503 33.9999571,18.4187688 33.9999571,18.7141173 L33.9999571,18.7141173 L33.9999571,19.0000358 L27.9999714,19.0000358 L27.9999714,13.0000501 Z" id="Combined-Shape"></path>
            </g>
        </g>
    </g>
</svg>