<?xml version="1.0" encoding="UTF-8"?>
<svg width="50px" height="50px" viewBox="0 0 50 50" version="1.1" xmlns="http://www.w3.org/2000/svg" xmlns:xlink="http://www.w3.org/1999/xlink">
    <title>Statistics</title>
    <g id="Icons" stroke="none" stroke-width="1" fill="#5D63F1" fill-rule="evenodd">
        <g transform="translate(-590.000000, -140.000000)" fill="#5D63F1" fill-rule="nonzero" id="statistics">
            <g transform="translate(590.000000, 140.000000)" id="paths">
                <path d="M44,0 C47.3137085,0 50,2.6862915 50,6 L50,44 C50,47.3137085 47.3137085,50 44,50 L6,50 C2.6862915,50 0,47.3137085 0,44 L0,6 C0,2.6862915 2.6862915,0 6,0 L44,0 Z M44,2 L6,2 C3.85780461,2 2.10892112,3.68396847 2.00489531,5.80035966 L2,6 L2,44 C2,46.1421954 3.68396847,47.8910789 5.80035966,47.9951047 L6,48 L44,48 C46.1421954,48 47.8910789,46.3160315 47.9951047,44.1996403 L48,44 L48,6 C48,3.85780461 46.3160315,2.10892112 44.1996403,2.00489531 L44,2 Z" id="Rectangle"></path>
                <path d="M35.4891414,24.2500232 C35.9176071,24.2500232 36.2775916,23.8900388 36.248066,23.4625343 C35.8618059,17.862862 31.3871309,13.388187 25.7874586,13.0019269 C25.3599541,12.9724012 24.9999696,13.3328435 24.9999696,13.7613092 L24.9999696,24.2500232 L35.4891414,24.2500232 Z M23.6420169,36.9990773 C26.0044838,36.9695059 28.187462,36.2082925 29.9823033,34.9351632 C30.3526332,34.6726363 30.3769862,34.1274869 30.0559115,33.8064122 L22.749975,26.5000179 L22.749975,15.3770738 C22.749975,14.9294278 22.3567111,14.5614325 21.9137343,14.6242833 C16.3276575,15.413649 12.0578313,20.2937644 12.256546,26.142368 C12.460937,32.1488997 17.6326471,37.0745166 23.6420169,36.9990773 Z M34.3149346,33.9395296 C36.1290019,32.230473 37.3768169,29.9265539 37.7428897,27.3367163 C37.8057405,26.8932817 37.4377451,26.5000179 36.9900991,26.5000179 L25.867155,26.5000179 L33.2748064,33.9076693 C33.5579326,34.1907954 34.0238434,34.2137293 34.3149346,33.9395296 Z" id=""></path>
            </g>
        </g>
    </g>
</svg>