<?xml version="1.0" encoding="UTF-8"?>
<svg width="50px" height="50px" viewBox="0 0 50 50" version="1.1" xmlns="http://www.w3.org/2000/svg" xmlns:xlink="http://www.w3.org/1999/xlink">
    <title>Markdown</title>
    <g id="Icons" stroke="none" stroke-width="1" fill="#5D63F1" fill-rule="evenodd">
        <g transform="translate(-590.000000, -50.000000)" fill="#5D63F1" fill-rule="nonzero" id="markdown">
            <g transform="translate(590.000000, 50.000000)" id="paths">
                <path d="M44,0 C47.3137085,0 50,2.6862915 50,6 L50,44 C50,47.3137085 47.3137085,50 44,50 L6,50 C2.6862915,50 0,47.3137085 0,44 L0,6 C0,2.6862915 2.6862915,0 6,0 L44,0 Z M44,2 L6,2 C3.85780461,2 2.10892112,3.68396847 2.00489531,5.80035966 L2,6 L2,44 C2,46.1421954 3.68396847,47.8910789 5.80035966,47.9951047 L6,48 L44,48 C46.1421954,48 47.8910789,46.3160315 47.9951047,44.1996403 L48,44 L48,6 C48,3.85780461 46.3160315,2.10892112 44.1996403,2.00489531 L44,2 Z" id="Rectangle"></path>
                <path d="M37.8390144,34.2297053 C39.0343241,34.2297053 40.0045977,33.2593859 39.9999453,32.0687454 L39.9999453,17.9312975 C39.9999453,16.740657 39.0296091,15.7703377 37.8342995,15.7703377 L12.165629,15.7703377 C10.9703193,15.7703377 10,16.740657 10,17.9312975 L10,32.0640763 C10,33.2593859 10.9703193,34.2297053 12.165629,34.2297053 L37.8390144,34.2297053 Z M17.2187328,29.9031165 L14.326543,29.9031165 L14.326543,20.0969265 L17.2093487,20.0969265 L20.0921543,23.7015779 L22.9749599,20.0969265 L25.8577655,20.0969265 L25.8577655,29.9031165 L22.984344,29.9031165 L22.984344,24.2781299 L20.1015384,27.8828271 L17.2187328,24.2781299 L17.2187328,29.9031165 Z M32.2093129,30.0484561 L27.8827699,25.0000215 L30.7655755,25.0000215 L30.7655755,20.0969265 L33.6483811,20.0969265 L33.6483811,25.0000215 L36.5311867,25.0000215 L32.2093129,30.0484561 Z" id=""></path>
            </g>
        </g>
    </g>
</svg>