<?xml version="1.0" encoding="UTF-8"?>
<svg width="50px" height="50px" viewBox="0 0 50 50" version="1.1" xmlns="http://www.w3.org/2000/svg" xmlns:xlink="http://www.w3.org/1999/xlink">
    <title>pro-variables</title>
    <g id="Icons" stroke="none" stroke-width="1" fill="none" fill-rule="evenodd">
        <g transform="translate(-410.000000, -230.000000)" id="pro-variables">
            <g transform="translate(410.000000, 230.000000)" id="paths">
                <rect id="Rectangle" stroke="#5D63F1" stroke-width="2" x="1" y="1" width="48" height="48" rx="6"></rect>
                <path d="M21.2499768,35.4999964 C21.6639315,35.4999964 21.999975,35.1639529 21.999975,34.7499982 L21.999975,33.2500018 C21.999975,32.8360471 21.6639315,32.5000036 21.2499768,32.5000036 L18.9999821,32.5000036 C18.1721185,32.5000036 17.4999857,31.8278708 17.4999857,31.0000072 L17.4999857,29.2431144 C17.4999399,28.0011129 16.996218,26.8753374 16.1814006,26.0607947 L15.1210851,25.0000215 L16.1818583,23.9392482 C16.9964926,23.1247055 17.4999857,21.9987469 17.4999857,20.7569285 L17.4999857,19.0000358 C17.4999857,18.1721721 18.1721185,17.5000465 18.9999821,17.5000465 L21.2499768,17.5000465 C21.6639315,17.5000465 21.999975,17.1639958 21.999975,16.7500411 L21.999975,15.2500447 C21.999975,14.83609 21.6639315,14.5000465 21.2499768,14.5000465 L18.9999821,14.5000465 C16.5163912,14.5000465 14.4999928,16.5164449 14.4999928,19.0000358 L14.4999928,20.7569285 C14.4998555,21.1712037 14.3319482,21.5467521 14.0603119,21.8186173 L11.9392232,23.9392482 C11.6676327,24.2107472 11.4995422,24.5858379 11.4995422,24.9997926 C11.4995422,25.4137931 11.6676327,25.7892957 11.9392232,26.0607947 L14.0603119,28.1818834 C14.331994,28.4533824 14.4999471,28.8286561 14.4999928,29.2426566 L14.4999928,31.0000072 C14.4999928,33.483598 16.5163912,35.4999964 18.9999821,35.4999964 L21.2499768,35.4999964 Z M30.9999607,35.4999964 C33.4835444,35.4999964 35.4999428,33.483598 35.4999428,31.0000072 L35.4999428,29.2426566 C35.4999886,28.8286561 35.6679416,28.4533824 35.9396237,28.1818834 L38.0607124,26.0607947 C38.332303,25.7892957 38.5003934,25.414205 38.5003934,25.0002503 C38.5003934,24.5862499 38.332303,24.2107472 38.0607124,23.9392482 L35.9396237,21.8186173 C35.6679874,21.5467521 35.5000801,21.1712037 35.4999428,20.7569285 L35.4999428,19.0000358 C35.4999428,16.5164449 33.4835444,14.5000465 30.9999607,14.5000465 L28.7499589,14.5000465 C28.3360042,14.5000465 27.9999607,14.83609 27.9999607,15.2500447 L27.9999607,16.7500411 C27.9999607,17.1639958 28.3360042,17.5000465 28.7499589,17.5000465 L30.9999607,17.5000465 C31.8278171,17.5000465 32.4999499,18.1721721 32.4999499,19.0000358 L32.4999499,20.756425 C32.4999499,21.998518 33.0036719,23.1251175 33.818535,23.939706 L34.8788505,25.0000215 L33.818535,26.0607947 C33.0037177,26.8753374 32.4999957,28.0011129 32.4999499,29.2431144 L32.4999499,31.0000072 C32.4999499,31.8278708 31.8278171,32.5000036 30.9999607,32.5000036 L28.7499589,32.5000036 C28.3360042,32.5000036 27.9999607,32.8360471 27.9999607,33.2500018 L27.9999607,34.7499982 C27.9999607,35.1639529 28.3360042,35.4999964 28.7499589,35.4999964 L30.9999607,35.4999964 Z" id="" fill="#5D63F1" fill-rule="nonzero"></path>
            </g>
        </g>
    </g>
</svg>
