<?xml version="1.0" encoding="UTF-8"?>
<svg width="50px" height="50px" viewBox="0 0 50 50" version="1.1" xmlns="http://www.w3.org/2000/svg" xmlns:xlink="http://www.w3.org/1999/xlink">
    <title>Query</title>
    <g id="Icons" stroke="none" stroke-width="1" fill="#5D63F1" fill-rule="evenodd">
        <g transform="translate(-410.000000, -140.000000)" fill="#5D63F1" fill-rule="nonzero" id="query">
            <g transform="translate(410.000000, 140.000000)" id="paths">
                <path d="M44,0 C47.3137085,0 50,2.6862915 50,6 L50,44 C50,47.3137085 47.3137085,50 44,50 L6,50 C2.6862915,50 0,47.3137085 0,44 L0,6 C0,2.6862915 2.6862915,0 6,0 L44,0 Z M44,2 L6,2 C3.85780461,2 2.10892112,3.68396847 2.00489531,5.80035966 L2,6 L2,44 C2,46.1421954 3.68396847,47.8910789 5.80035966,47.9951047 L6,48 L44,48 C46.1421954,48 47.8910789,46.3160315 47.9951047,44.1996403 L48,44 L48,6 C48,3.85780461 46.3160315,2.10892112 44.1996403,2.00489531 L44,2 Z" id="Rectangle"></path>
                <path d="M24.999975,22.0000286 C30.7968514,22.0000286 35.4999499,20.4598406 35.4999499,18.5714784 L35.4999499,16.4286002 C35.4999499,14.540238 30.7968514,13.0000501 24.999975,13.0000501 C19.2030985,13.0000501 14.5,14.540238 14.5,16.4286002 L14.5,18.5714784 C14.5,20.4598406 19.2030985,22.0000286 24.999975,22.0000286 Z M24.999975,29.5000107 C30.7968514,29.5000107 35.4999499,27.9598228 35.4999499,26.0714606 L35.4999499,21.2500304 C33.2440502,22.803585 29.1152148,23.5268499 24.999975,23.5268499 C20.8847351,23.5268499 16.755854,22.803585 14.5,21.2500304 L14.5,26.0714606 C14.5,27.9598228 19.2030985,29.5000107 24.999975,29.5000107 Z M24.999975,36.9999928 C30.7968514,36.9999928 35.4999499,35.4598049 35.4999499,33.5714427 L35.4999499,28.7500125 C33.2440502,30.3035672 29.1152148,31.026832 24.999975,31.026832 C20.8847351,31.026832 16.755854,30.3035672 14.5,28.7500125 L14.5,33.5714427 C14.5,35.4598049 19.2030985,36.9999928 24.999975,36.9999928 Z" id=""></path>
            </g>
        </g>
    </g>
</svg>