<?xml version="1.0" encoding="UTF-8"?>
<svg width="50px" height="50px" viewBox="0 0 50 50" version="1.1" xmlns="http://www.w3.org/2000/svg" xmlns:xlink="http://www.w3.org/1999/xlink">
    <title>Default Add-On Icon</title>
    <g id="Icons" stroke="none" stroke-width="1" fill="none" fill-rule="evenodd">
        <g transform="translate(-770.000000, -140.000000)" fill="#ADAEC5" fill-rule="nonzero" id="default">
            <g transform="translate(770.000000, 140.000000)" id="paths">
                <path d="M44,0 C47.3137085,0 50,2.6862915 50,6 L50,44 C50,47.3137085 47.3137085,50 44,50 L6,50 C2.6862915,50 0,47.3137085 0,44 L0,6 C0,2.6862915 2.6862915,0 6,0 L44,0 Z M44,2 L6,2 C3.85780461,2 2.10892112,3.68396847 2.00489531,5.80035966 L2,6 L2,44 C2,46.1421954 3.68396847,47.8910789 5.80035966,47.9951047 L6,48 L44,48 C46.1421954,48 47.8910789,46.3160315 47.9951047,44.1996403 L48,44 L48,6 C48,3.85780461 46.3160315,2.10892112 44.1996403,2.00489531 L44,2 Z" id="Rectangle"></path>
                <path d="M21.8734847,34.0937321 C21.8734847,33.0403289 19.9984891,32.2137012 19.9984891,30.274802 C19.9984891,28.5190537 21.3695796,27.6335577 22.9786609,27.6335577 C24.557072,27.6335577 25.8749705,28.5343429 25.8749705,30.1984472 C25.8749705,32.0609916 24.1739705,32.5495616 24.1739705,34.2289552 C24.1739705,36.1111411 26.8247903,36.0334048 29.3213213,35.7635048 L29.7472633,35.7156836 C30.8762866,35.5849 31.9395689,35.435068 32.6691285,35.435068 C32.6691285,35.435068 31.0413705,29.8053207 33.8797274,29.8053207 C35.5654839,29.8053207 36.0558392,31.4999578 37.9254331,31.4999578 C39.5958088,31.5000036 40.4999356,30.1870489 40.4999356,28.6145429 C40.4999356,27.0114584 39.611098,25.5305506 37.8488036,25.5305506 C35.9025803,25.5305506 35.0597478,27.0114584 34.0023162,27.0114584 C31.1910131,27.0114584 33.7499517,18.750034 33.7499517,18.750034 C33.7499517,18.750034 24.5489696,22.500025 24.5489696,18.5954933 C24.5489696,16.9160997 26.2499696,16.4275297 26.2499696,14.5649396 C26.2499696,12.9007895 24.9320711,12.0000501 23.368995,12.0000501 C21.7445787,12.0000501 20.2580863,12.885546 20.2580863,14.6412486 C20.2580863,16.5801936 21.744533,17.4198675 21.744533,18.4732707 C21.7445686,21.0116049 16.7571153,20.4141739 14.5404676,20.0232991 L14.2434904,19.9692259 C13.7827359,19.8826489 13.5,19.8168039 13.5,19.8168039 L13.5,35.4372653 C13.5,35.4372653 21.8734847,37.361333 21.8734847,34.0937321 Z" id=""></path>
            </g>
        </g>
    </g>
</svg>