<?xml version="1.0" encoding="UTF-8"?>
<svg width="184px" height="274px" viewBox="0 0 184 274" version="1.1" xmlns="http://www.w3.org/2000/svg" xmlns:xlink="http://www.w3.org/1999/xlink">
    <title>ee-6</title>
    <g id="Beta-Welcome-Banner" stroke="none" stroke-width="1" fill="none" fill-rule="evenodd">
        <path d="M94.109671,274 C107.807245,274 120.190096,271.641628 131.258225,266.924883 C142.326354,262.208138 151.774011,255.745585 159.601196,247.537223 C167.428382,239.328862 173.451645,229.619718 177.670987,218.409792 C181.890329,207.199866 184,195.101721 184,182.115359 C184,169.74156 182.410103,158.072211 179.230309,147.107311 C176.050515,136.14241 171.280824,126.525151 164.921236,118.255533 C158.561648,109.985915 150.642738,103.431478 141.164506,98.59222 C131.686275,93.7529622 120.648721,91.3333333 108.051844,91.3333333 C96.5556663,91.3333333 86.3130608,93.3241672 77.3240279,97.305835 C68.334995,101.287503 60.5995347,106.586184 54.1176471,113.201878 C55.5852443,102.54326 58.5510136,92.9260004 63.0149551,84.3501006 C67.4788966,75.7742008 73.3492855,68.4846859 80.6261216,62.481556 C87.9029578,56.4784261 96.5556663,51.8535658 106.584247,48.6069752 C116.612828,45.3603845 127.925557,43.7370892 140.522433,43.7370892 L140.522433,43.7370892 L143.641077,43.7370892 L143.641077,0 L136.119641,0 C114.594882,0 95.3938185,3.61412922 78.5164506,10.8423877 C61.6390828,18.0706461 47.3911599,28.1779566 35.772682,41.1643192 C24.1542041,54.1506819 15.2874709,69.648558 9.17248255,87.6579477 C3.05749418,105.667337 0,125.453163 0,147.015426 L0,147.015426 L0,167.597586 C0,183.279231 2.23197075,197.643863 6.69591226,210.691482 C11.1598538,223.739101 17.4582918,234.949027 25.5912263,244.321261 C33.7241609,253.693494 43.5998671,260.983009 55.218345,266.189805 C66.8368229,271.396602 79.8005982,274 94.109671,274 Z M92.375698,231.595238 C86.4872073,231.595238 81.0587549,230.423665 76.0903409,228.08052 C71.1219268,225.737375 66.8895741,222.191826 63.3932828,217.443874 C59.8969914,212.695922 57.1674306,206.745567 55.2046004,199.592808 C53.2417701,192.440049 52.260355,184.115717 52.260355,174.619813 L52.260355,174.619813 L52.260355,158.526105 C53.7324777,155.196372 55.7259772,152.020794 58.2408534,148.99937 C60.7557296,145.977946 63.6693058,143.326492 66.9815818,141.045009 C70.2938578,138.763525 73.9741645,136.975335 78.0225019,135.680439 C82.0708392,134.385543 86.4872073,133.738095 91.271606,133.738095 C97.4054505,133.738095 102.895241,134.940499 107.740978,137.345306 C112.586716,139.750113 116.727061,143.141507 120.162014,147.519489 C123.596966,151.897471 126.20385,157.077055 127.982665,163.058241 C129.76148,169.039427 130.650888,175.6064 130.650888,182.759159 C130.650888,189.788595 129.730811,196.293906 127.890658,202.275092 C126.050504,208.256279 123.47429,213.405032 120.162014,217.721352 C116.849737,222.037672 112.832069,225.429067 108.109009,227.895535 C103.385949,230.362004 98.1415118,231.595238 92.375698,231.595238 Z" id="ee-6" fill="#000000" fill-rule="nonzero"></path>
    </g>
</svg>