<?xml version="1.0" encoding="UTF-8"?>
<svg width="409px" height="53px" viewBox="0 0 409 53" version="1.1" xmlns="http://www.w3.org/2000/svg" xmlns:xlink="http://www.w3.org/1999/xlink">
    <title>ee-logotype-white</title>
    <defs>
        <polygon id="path-1" points="0.403137 0.329994 29.299347 0.329994 29.299347 40.635 0.403137 40.635"></polygon>
        <polygon id="path-3" points="0.729918 0.330183 35.259273 0.330183 35.259273 40.635 0.729918 40.635"></polygon>
        <polygon id="path-5" points="0.742014 0.3308445 26.443935 0.3308445 26.443935 29.1769695 0.742014 29.1769695"></polygon>
    </defs>
    <g id="Beta-Welcome-Banner" stroke="none" stroke-width="1" fill="none" fill-rule="evenodd">
        <g id="Group-44">
            <path d="M52.9184835,37.655685 L46.1305485,26.10495 L56.2949685,14.170545 L56.4953085,12.770055 L49.5788535,12.770055 L43.4448585,20.426445 C43.2416835,20.679705 42.8873085,21.186225 42.3798435,22.909905 C42.4299285,21.186225 42.0755535,20.679705 41.9744385,20.477475 L37.6642935,12.770055 L29.7055035,12.770055 L37.3089735,25.901775 L25.1931285,39.99645 L33.1519185,39.99645 L39.9965535,31.68045 C40.3509285,31.22496 40.9084785,30.262005 41.1636285,29.197935 C41.1636285,30.262005 41.4168885,31.275045 41.6701485,31.68045 L46.3838085,39.99645 L52.5830085,39.99645 L52.9184835,37.655685 Z" id="Fill-1" fill="#FEFEFE"></path>
            <path d="M29.027655,9.1211265 L11.486565,9.1211265 L10.21932,17.8907265 L26.239905,17.8907265 L23.754555,23.5701765 L9.20439,23.5701765 C9.30645,23.9236065 9.30645,24.3299565 9.25542,24.5331315 L7.83603,34.3186065 L25.427205,34.3186065 L24.616395,39.9961665 L0.23067,39.9961665 L5.502825,3.4435665 L29.838465,3.4435665 L29.027655,9.1211265 Z" id="Fill-3" fill="#FEFEFE"></path>
            <g id="Group-7" transform="translate(53.145000, 11.629440)">
                <mask id="mask-2" fill="white">
                    <use xlink:href="#path-1"></use>
                </mask>
                <g id="Clip-6"></g>
                <path d="M17.638992,5.501979 C16.118487,5.501979 14.293692,5.755239 12.012462,7.225659 L9.732177,22.993929 C11.150622,23.702679 13.177647,24.006969 14.902272,24.006969 C19.008297,24.006969 21.239442,21.369474 22.203342,14.524839 C22.405572,13.206564 22.506687,12.091464 22.506687,11.129454 C22.506687,7.072569 20.886012,5.501979 17.638992,5.501979 M28.996002,14.524839 C27.729702,23.447529 23.772987,29.177064 14.192577,29.177064 C12.418812,29.177064 10.390842,28.823634 8.564157,27.960849 C8.718192,28.516509 8.870337,29.177064 8.768277,29.736504 L7.195797,40.635189 L0.403137,40.635189 L6.081642,1.140804 L10.948392,1.140804 L11.505942,3.373839 C13.837257,1.343979 16.575867,0.329994 19.110357,0.329994 C26.360397,0.329994 29.299347,4.538079 29.299347,10.875249 C29.299347,12.042324 29.197287,13.258539 28.996002,14.524839" id="Fill-5" fill="#FEFEFE" mask="url(#mask-2)"></path>
            </g>
            <path d="M102.925048,18.0441 C101.809003,17.89101 100.644763,17.78895 99.4257135,17.78895 C97.4998035,17.78895 95.4718335,18.09324 93.6971235,19.160145 L90.7071435,39.995505 L83.9135385,39.995505 L87.8173335,12.770055 L93.3928335,12.770055 L93.8010735,14.95206 C96.0804135,12.770055 98.3625885,11.96019 100.795963,11.96019 C101.760808,11.96019 102.773848,12.11328 103.787834,12.31551 L102.925048,18.0441 Z" id="Fill-8" fill="#FEFEFE"></path>
            <path d="M118.224976,17.3344995 C114.373156,17.3344995 112.496386,18.8039745 111.381287,23.5705545 L122.535121,23.5705545 C122.636236,22.9619745 122.686321,22.4025345 122.686321,21.8969595 C122.686321,18.9050895 121.216846,17.3344995 118.224976,17.3344995 M128.820316,28.3352445 L110.518501,28.3352445 C110.416441,29.1460545 110.368246,29.8557495 110.368246,30.5153595 C110.368246,33.8606595 111.887807,35.4331395 115.639457,35.4331395 C119.137847,35.4331395 121.115732,33.9126345 122.584261,31.6805445 L127.705216,33.7595445 C125.321926,38.3220045 120.861527,40.8064095 114.879677,40.8064095 C107.173202,40.8064095 103.674812,36.6994395 103.674812,29.8557495 C103.674812,28.7406495 103.775926,27.5764095 103.929017,26.3573595 C105.397546,16.3696545 109.759666,11.9602845 119.035787,11.9602845 C127.452901,11.9602845 129.379756,17.8911045 129.379756,22.9619745 C129.379756,24.4824795 129.074522,26.5104495 128.820316,28.3352445" id="Fill-10" fill="#FEFEFE"></path>
            <path d="M149.757925,19.9701045 C148.795916,18.2464245 147.021205,17.2825245 144.231565,17.2825245 C142.05334,17.2825245 139.415845,17.7408495 139.415845,20.4775695 C139.415845,21.4414695 139.87228,22.2522795 141.08944,22.4554545 L146.96923,23.5185795 C150.670795,24.1781895 153.711806,26.2552995 153.711806,30.2120145 C153.711806,37.9676295 147.272575,40.8064095 140.53,40.8064095 C135.76531,40.8064095 132.015551,39.1838445 130.18981,34.9266195 L135.86737,32.8476195 C136.93333,34.7735295 138.656066,35.6363145 141.24253,35.6363145 C143.77702,35.6363145 146.919145,34.8746445 146.919145,31.7325195 C146.919145,30.6174195 146.412625,29.8056645 144.94126,29.5514595 L138.60409,28.3862745 C135.664196,27.8277795 132.77344,25.5975795 132.77344,21.3894945 C132.77344,14.1895395 138.706151,11.9593395 144.993236,11.9593395 C150.620711,11.9593395 153.711806,14.2415145 155.08111,17.4856995 L149.757925,19.9701045 Z" id="Fill-12" fill="#FEFEFE"></path>
            <path d="M174.649981,19.9701045 C173.687972,18.2464245 171.915151,17.2825245 169.123621,17.2825245 C166.946341,17.2825245 164.310736,17.7408495 164.310736,20.4775695 C164.310736,21.4414695 164.767171,22.2522795 165.984331,22.4554545 L171.864121,23.5185795 C175.565686,24.1781895 178.606696,26.2552995 178.606696,30.2120145 C178.606696,37.9676295 172.165576,40.8064095 165.423001,40.8064095 C160.660201,40.8064095 156.907606,39.1838445 155.083756,34.9266195 L160.759426,32.8476195 C161.825386,34.7735295 163.550956,35.6363145 166.134586,35.6363145 C168.671911,35.6363145 171.812146,34.8746445 171.812146,31.7325195 C171.812146,30.6174195 171.307516,29.8056645 169.836151,29.5514595 L163.498981,28.3862745 C160.557196,27.8277795 157.666441,25.5975795 157.666441,21.3894945 C157.666441,14.1895395 163.598206,11.9593395 169.888126,11.9593395 C175.512766,11.9593395 178.606696,14.2415145 179.974111,17.4856995 L174.649981,19.9701045 Z" id="Fill-14" fill="#FEFEFE"></path>
            <path d="M194.930532,7.345566 C194.877612,7.802946 194.877612,7.802946 194.473152,7.802946 L187.880832,7.802946 C187.475427,7.802946 187.475427,7.802946 187.527402,7.345566 L188.442162,1.060371 C188.489412,0.553851 188.489412,0.501876 188.894817,0.501876 L195.487137,0.501876 C195.892542,0.501876 195.892542,0.553851 195.840567,1.060371 L194.930532,7.345566 Z M193.563117,40.452696 L190.111032,40.452696 C186.159987,40.452696 184.232187,38.727126 184.232187,35.178651 C184.232187,34.622991 184.283217,34.063551 184.382442,33.402996 L186.414192,19.362186 C186.461442,18.956781 186.716592,18.348201 187.121997,17.890821 L182.204217,17.890821 L182.915802,12.769866 L194.119722,12.769866 L191.176992,33.402996 C191.130687,33.658146 191.130687,33.912351 191.130687,34.115526 C191.130687,34.725051 191.379222,34.927281 192.143727,34.927281 L194.321952,34.927281 L193.563117,40.452696 Z" id="Fill-16" fill="#FEFEFE"></path>
            <path d="M211.711653,17.3344995 C207.552708,17.3344995 205.524738,19.4635845 204.511698,26.3573595 C204.308523,27.7266645 204.205518,28.9438245 204.205518,29.9568645 C204.205518,34.0638345 205.826193,35.4331395 209.123298,35.4331395 C213.229323,35.4331395 215.413218,33.3021645 216.426258,26.3573595 C216.629433,25.0381395 216.728658,23.8738995 216.728658,22.8608595 C216.728658,18.7019145 215.054118,17.3344995 211.711653,17.3344995 M223.217028,26.3573595 C221.849613,35.7875145 217.742643,40.8064095 208.363518,40.8064095 C200.351808,40.8064095 197.461998,35.8895745 197.461998,29.7045495 C197.461998,28.6395345 197.565948,27.4743495 197.716203,26.3573595 C199.084563,16.7750595 203.144283,11.9602845 212.522463,11.9602845 C220.481253,11.9602845 223.471233,16.6248045 223.471233,22.9099995 C223.471233,24.0250995 223.372008,25.1401995 223.217028,26.3573595" id="Fill-18" fill="#FEFEFE"></path>
            <path d="M250.106909,22.8604815 L247.622503,39.9961665 L240.878984,39.9961665 L243.364334,22.8604815 C243.468284,22.2519015 243.514589,21.6442665 243.514589,21.0848265 C243.514589,18.7535115 242.605499,17.2330065 240.068174,17.2330065 C237.989174,17.2330065 235.556744,18.3972465 233.580749,19.6134615 L230.638019,39.9961665 L223.895443,39.9961665 L227.800184,12.7697715 L233.377574,12.7697715 L233.834954,15.2551215 C236.975189,12.7697715 239.511569,11.9599065 242.350348,11.9599065 C248.027909,11.9599065 250.310083,15.5584665 250.310083,20.3760765 C250.310083,21.1868865 250.209913,21.9976965 250.106909,22.8604815" id="Fill-20" fill="#FEFEFE"></path>
            <path d="M282.702982,9.1211265 L265.161892,9.1211265 L263.899372,17.8907265 L279.916178,17.8907265 L277.431773,23.5701765 L262.879718,23.5701765 C262.984613,23.9236065 262.984613,24.3299565 262.932637,24.5331315 L261.513247,34.3186065 L279.104422,34.3186065 L278.294557,39.9961665 L253.906943,39.9961665 L259.183823,3.4435665 L283.518517,3.4435665 L282.702982,9.1211265 Z" id="Fill-22" fill="#FEFEFE"></path>
            <path d="M307.994679,22.8604815 L305.510274,39.9961665 L298.766754,39.9961665 L301.252104,22.8604815 C301.351329,22.2519015 301.402359,21.6442665 301.402359,21.0848265 C301.402359,18.7535115 300.488544,17.2330065 297.956889,17.2330065 C295.876944,17.2330065 293.444514,18.3972465 291.463794,19.6134615 L288.525789,39.9961665 L281.783214,39.9961665 L285.687954,12.7697715 L291.260619,12.7697715 L291.717999,15.2551215 C294.862959,12.7697715 297.395559,11.9599065 300.238119,11.9599065 C305.915679,11.9599065 308.197854,15.5584665 308.197854,20.3760765 C308.197854,21.1868865 308.093904,21.9976965 307.994679,22.8604815" id="Fill-24" fill="#FEFEFE"></path>
            <g id="Group-28" transform="translate(307.350000, 11.629440)">
                <mask id="mask-4" fill="white">
                    <use xlink:href="#path-3"></use>
                </mask>
                <g id="Clip-27"></g>
                <path d="M18.473238,5.653368 C14.667723,5.653368 12.489498,7.834428 12.489498,11.585133 C12.489498,14.119623 14.112063,15.184638 17.053848,15.184638 C20.854638,15.184638 22.984668,13.157613 22.984668,9.406908 C22.984668,6.921558 21.514248,5.653368 18.473238,5.653368 L18.473238,5.653368 Z M19.128123,28.468503 L9.598743,26.692848 C8.081073,28.314468 7.420518,29.379483 7.420518,31.661658 C7.420518,34.246233 9.245313,35.413308 14.112063,35.413308 C17.304273,35.413308 21.717423,34.905843 21.717423,30.798873 C21.717423,29.533518 21.056868,28.823823 19.128123,28.468503 L19.128123,28.468503 Z M34.645968,6.261948 L31.349808,6.261948 C30.893373,6.261948 29.775438,6.212808 28.917378,5.806458 C29.422008,7.022673 29.624238,8.390088 29.624238,9.508023 C29.624238,17.414838 23.338098,20.455848 16.289343,20.455848 C14.719698,20.455848 13.202028,20.305593 11.880918,20.002248 C11.678688,19.950273 11.475513,19.900188 11.221308,19.900188 C10.461528,19.900188 10.004148,20.305593 10.004148,21.065373 C10.004148,21.571893 10.259298,21.927213 11.371563,22.130388 L21.160818,23.955183 C26.583228,24.968223 28.459053,27.300483 28.459053,30.291408 C28.459053,39.062898 20.246058,40.635378 13.352283,40.635378 C7.877898,40.635378 0.729918,39.164013 0.729918,32.320323 C0.729918,28.771848 2.601963,25.730838 5.642973,23.905098 C5.034393,23.144373 4.732938,22.283478 4.732938,21.469833 C4.732938,19.645983 6.049323,18.226593 7.571718,17.414838 C6.609708,16.198623 5.798898,14.272713 5.798898,12.042513 C5.798898,4.082778 11.980143,0.330183 19.232073,0.330183 C21.768453,0.330183 24.451308,0.787563 26.432028,2.052918 L30.341493,1.174068 L35.259273,1.174068 L34.645968,6.261948 Z" id="Fill-26" fill="#FEFEFE" mask="url(#mask-4)"></path>
            </g>
            <path d="M352.788907,7.345566 C352.741657,7.802946 352.741657,7.802946 352.336253,7.802946 L345.744877,7.802946 C345.338527,7.802946 345.338527,7.802946 345.390502,7.345566 L346.301482,1.060371 C346.352512,0.553851 346.352512,0.501876 346.757917,0.501876 L353.350237,0.501876 C353.754697,0.501876 353.754697,0.553851 353.703667,1.060371 L352.788907,7.345566 Z M351.421492,40.452696 L347.974132,40.452696 C344.019308,40.452696 342.095288,38.727126 342.095288,35.178651 C342.095288,34.622991 342.146318,34.063551 342.246488,33.402996 L344.272567,19.362186 C344.325487,18.956781 344.579692,18.348201 344.985097,17.890821 L340.067318,17.890821 L340.774178,12.769866 L351.978097,12.769866 L349.040093,33.402996 C348.989062,33.658146 348.989062,33.912351 348.989062,34.115526 C348.989062,34.725051 349.243268,34.927281 350.002102,34.927281 L352.180327,34.927281 L351.421492,40.452696 Z" id="Fill-29" fill="#FEFEFE"></path>
            <path d="M380.731046,22.8604815 L378.245696,39.9961665 L371.503121,39.9961665 L373.988471,22.8604815 C374.092421,22.2519015 374.138726,21.6442665 374.138726,21.0848265 C374.138726,18.7535115 373.229636,17.2330065 370.69231,17.2330065 C368.613311,17.2330065 366.179935,18.3972465 364.204885,19.6134615 L361.261211,39.9961665 L354.519581,39.9961665 L358.424321,12.7697715 L364.001711,12.7697715 L364.459091,15.2551215 C367.599326,12.7697715 370.135706,11.9599065 372.974486,11.9599065 C378.652045,11.9599065 380.934221,15.5584665 380.934221,20.3760765 C380.934221,21.1868865 380.834051,21.9976965 380.731046,22.8604815" id="Fill-31" fill="#FEFEFE"></path>
            <g id="Group-35" transform="translate(382.005000, 11.629440)">
                <mask id="mask-6" fill="white">
                    <use xlink:href="#path-5"></use>
                </mask>
                <g id="Clip-34"></g>
                <path d="M15.293124,5.7050595 C11.440359,5.7050595 9.564534,7.1745345 8.446599,11.9411145 L19.602324,11.9411145 C19.701549,11.3325345 19.753524,10.7730945 19.753524,10.2675195 C19.753524,7.2756495 18.282159,5.7050595 15.293124,5.7050595 M25.887519,16.7058045 L7.583814,16.7058045 C7.483644,17.5166145 7.432614,18.2263095 7.432614,18.8859195 C7.432614,22.2312195 8.955009,23.8036995 12.703824,23.8036995 C16.203159,23.8036995 18.183879,22.2831945 19.648629,20.0511045 L24.769584,22.1301045 C22.389129,26.6925645 17.928729,29.1769695 11.944989,29.1769695 C4.240404,29.1769695 0.742014,25.0699995 0.742014,18.2263095 C0.742014,17.1112095 0.840294,15.9469695 0.996219,14.7279195 C2.462859,4.7402145 6.824034,0.3308445 16.102989,0.3308445 C24.520104,0.3308445 26.444124,6.2616645 26.444124,11.3325345 C26.444124,12.8530395 26.141724,14.8810095 25.887519,16.7058045" id="Fill-33" fill="#FEFEFE" mask="url(#mask-6)"></path>
            </g>
        </g>
    </g>
</svg>