<?xml version="1.0" encoding="UTF-8"?>
<svg width="23px" height="18px" viewBox="0 0 23 18" version="1.1" xmlns="http://www.w3.org/2000/svg" xmlns:xlink="http://www.w3.org/1999/xlink">
    <title>eye-open</title>
    <g id="Page-1" stroke="none" stroke-width="1" fill="none" fill-rule="evenodd">
        <g id="eye-open" transform="translate(0.500000, 0.000000)">
            <rect id="Rectangle" x="0" y="0" width="22.5" height="18"></rect>
            <path d="M11.3749759,16 C15.6967124,16 19.472155,13.4814246 21.3775918,9.76293906 C21.4554229,9.60902784 21.4992651,9.43506662 21.4992651,9.25094306 C21.4992651,9.06685384 21.4554229,8.89066102 21.3775918,8.7367498 C19.4710907,5.01685663 15.6967124,2.50003219 11.3749759,2.50003219 C7.05323934,2.50003219 3.27779668,5.01860757 1.37235994,8.73709312 C1.29452886,8.89100435 1.25068664,9.06496557 1.25068664,9.24908912 C1.25068664,9.43317835 1.29452886,9.60937116 1.37235994,9.76328239 C3.27886098,13.4831756 7.05323934,16 11.3749759,16 Z M11.3774478,14.3125384 L11.3749759,14.3125384 C8.58091895,14.3125384 6.31248793,12.044073 6.31248793,9.25001609 C6.31248793,6.45595919 8.58091895,4.18752816 11.3749759,4.18752816 C14.1690328,4.18752816 16.4374638,6.45595919 16.4374638,9.25001609 L16.4374638,9.25252234 C16.4374638,12.0452403 14.1701314,14.3125384 11.3774478,14.3125384 Z M11.3833186,12.6104855 C13.2417546,12.6104855 14.7505858,11.1016543 14.7505858,9.24321832 C14.7505858,7.38478235 13.2417546,5.87598544 11.3833186,5.87598544 L11.3749759,5.87502414 C11.0667071,5.87931566 10.7680513,5.92590445 10.4851884,6.00826738 C10.6903576,6.28711346 10.8116189,6.6313967 10.8116189,7.00383233 C10.8116189,7.93227784 10.0578556,8.68604115 9.12941008,8.68604115 C8.75700877,8.68604115 8.41207323,8.56539782 8.13322715,8.36022863 C8.05683802,8.64168396 8.01605137,8.93773046 8.01605137,9.24321832 C8.01605137,11.1016543 9.52488261,12.6104855 11.3833186,12.6104855 Z" id="ï®" fill="#8F90B0" fill-rule="nonzero"></path>
        </g>
    </g>
</svg>