<?xml version="1.0" encoding="UTF-8"?>
<svg width="19px" height="15px" viewBox="0 0 19 15" version="1.1" xmlns="http://www.w3.org/2000/svg" xmlns:xlink="http://www.w3.org/1999/xlink">
    <title>eye-open</title>
    <g id="Page-1" stroke="none" stroke-width="1" fill="none" fill-rule="evenodd">
        <g id="ï®" transform="translate(1.124996, 0.812500)" fill="#8F90B0" fill-rule="nonzero">
            <path d="M12.1875036,6.5625 C12.1875036,8.63378942 10.508793,10.3125 8.43750358,10.3125 C6.3662146,10.3125 4.68750358,8.63378942 4.68750358,6.5625 C4.68750358,4.49121058 6.3662146,2.8125 8.43750358,2.8125 C10.508793,2.8125 12.1875036,4.49121058 12.1875036,6.5625 Z M8.43750358,3.75 C6.85840219,3.75 5.62500358,4.98339862 5.62500358,6.5625 C5.62500358,8.11523438 6.85840219,9.375 8.43750358,9.375 C9.99023795,9.375 11.2500036,8.11523438 11.2500036,6.5625 C11.2500036,4.98339862 9.99023795,3.75 8.43750358,3.75 Z M14.0800819,2.3613283 C15.4511762,3.6328125 16.368168,5.12988299 16.8017614,6.20214835 C16.8984407,6.43359393 16.8984407,6.69140607 16.8017614,6.9228512 C16.368168,7.96875 15.4511762,9.46582049 14.0800819,10.7636717 C12.7001989,12.0468754 10.8046907,13.125 8.43750358,13.125 C6.07031599,13.125 4.17480826,12.0468754 2.79551134,10.7636717 C1.4244175,9.46582049 0.508011281,7.96875 0.0721031427,6.9228512 C-0.0240343809,6.69140607 -0.0240343809,6.43359393 0.0721031427,6.20214835 C0.508011281,5.12988299 1.4244175,3.6328125 2.79551134,2.3613283 C4.17480826,1.07929677 6.07031599,0 8.43750358,0 C10.8046907,0 12.7001989,1.07929677 14.0800819,2.3613283 Z M0.937503576,6.5625 C1.32803097,7.5 2.17178106,8.90625 3.43359768,10.078125 C4.69629318,11.25 6.3750042,12.1875 8.43750358,12.1875 C10.5000038,12.1875 12.1787153,11.25 13.4414099,10.078125 C14.7041054,8.90625 15.5478559,7.5 15.9375036,6.5625 C15.5478559,5.59863299 14.7041054,4.19238299 13.4414099,3.046875 C12.1787153,1.87470675 10.5000038,0.9375 8.43750358,0.9375 C6.3750042,0.9375 4.69629318,1.87470675 3.43359768,3.046875 C2.17178106,4.19238299 1.32803097,5.59863299 0.937503576,6.5625 Z" id="Shape"></path>
        </g>
    </g>
</svg>