<?xml version="1.0" encoding="UTF-8"?>
<svg width="23px" height="18px" viewBox="0 0 23 18" version="1.1" xmlns="http://www.w3.org/2000/svg" xmlns:xlink="http://www.w3.org/1999/xlink">
    <title>eye-closed</title>
    <g id="Page-1" stroke="none" stroke-width="1" fill="none" fill-rule="evenodd">
        <g id="eye-closed" transform="translate(0.500000, 0.000000)">
            <rect id="Rectangle" x="0" y="0" width="22.5" height="18"></rect>
            <path d="M21.2467526,17.9996824 C21.4273743,17.9996824 21.5883923,17.9150536 21.6913545,17.7825656 L22.3818093,16.8941515 C22.4557952,16.798914 22.4998434,16.6793349 22.4998434,16.5495249 C22.4998434,16.3689032 22.4151802,16.2078509 22.2826922,16.1048887 L18.3961506,13.1011651 C19.5759764,12.1068704 20.54205,10.8975189 21.2525891,9.51276418 C21.3304202,9.35885296 21.3742624,9.18489174 21.3742624,9.00076818 C21.3742624,8.81667896 21.3304202,8.64048614 21.2525891,8.48657492 C19.3460881,4.76668175 15.5717097,2.24985731 11.2499732,2.24985731 C9.3788343,2.25212323 7.6065378,2.73655048 6.07075579,3.57525164 L1.59819794,0.118343071 C1.50289177,0.0441855331 1.38317541,0 1.25319373,0 C1.07257206,0 0.911554071,0.0846288571 0.808591822,0.217116792 L0.1184804,1.10553096 C0.0444258584,1.20076847 0.000308989742,1.3204505 0.000308989742,1.45032918 C0.000308989742,1.63084786 0.0848691824,1.79183151 0.217254121,1.89479376 L20.9017484,17.8813394 C20.9970546,17.9554969 21.1167709,17.9996824 21.2467526,17.9996824 Z M14.4421462,10.0446729 C14.5555111,9.71707507 14.62009,9.3646551 14.6249651,8.99984121 C14.6251711,8.98497537 14.6252741,8.9700752 14.6252741,8.95517503 C14.6252741,7.1165144 13.1325103,5.62378496 11.2938497,5.62378496 C10.9696508,5.62378496 10.6566099,5.67154104 10.3601857,5.7580925 C10.5647713,6.03532497 10.6868222,6.37933355 10.6874745,6.74984658 C10.682153,6.8706959 10.6634763,6.98872998 10.6333326,7.10140824 L8.0454749,5.10138631 C8.91294643,4.37646204 10.0324163,3.93824592 11.2499732,3.93735328 L11.2528571,3.93735328 C14.045369,3.93735328 16.3125298,6.20451402 16.3125298,8.99702597 L16.3125298,8.99984121 C16.3125298,9.665212 16.1700721,10.291023 15.9316848,10.8685572 L15.823,11.1128251 L14.4421462,10.0446729 Z M11.2499732,15.7498251 C12.1960311,15.7498251 13.1086838,15.6092005 13.9882746,15.382093 L12.1640335,13.9705592 C11.8666824,14.027997 11.5633231,14.0594109 11.2499732,14.0623291 C8.58339171,14.0623291 6.42478937,11.998312 6.2261433,9.3826795 L2.53828206,6.53259246 C2.05347716,7.14078727 1.6073303,7.78379492 1.24735726,8.48691824 C1.16952617,8.64082947 1.12568396,8.81479069 1.12568396,8.99891424 C1.12568396,9.18300347 1.16952617,9.35919628 1.24735726,9.51310751 C3.15385829,13.2330007 6.92823666,15.7498251 11.2499732,15.7498251 Z" id="ï°" fill="#8F90B0" fill-rule="nonzero"></path>
        </g>
    </g>
</svg>