<?xml version="1.0" encoding="UTF-8"?>
<svg width="19px" height="15px" viewBox="0 0 19 15" version="1.1" xmlns="http://www.w3.org/2000/svg" xmlns:xlink="http://www.w3.org/1999/xlink">
    <title>eye-closed</title>
    <g id="Page-1" stroke="none" stroke-width="1" fill="none" fill-rule="evenodd">
        <g id="ï°" transform="translate(0.250002, -0.124998)" fill="#8F90B0" fill-rule="nonzero">
            <path d="M18.5712881,14.1621073 C18.7763662,14.3232401 18.8085921,14.5927717 18.6503882,14.821287 C18.4892554,15.026366 18.1933577,15.0585919 17.9912085,14.9003889 L0.178299038,0.83671679 C-0.0248836588,0.676169593 -0.0595623862,0.381443102 0.10086724,0.17829885 C0.26126781,-0.0248838476 0.556052862,-0.059562128 0.759080439,0.100867052 L18.571289,14.1621073 L18.5712881,14.1621073 Z M17.739257,7.86034932 C17.4404285,8.58105262 16.9101558,9.53027119 16.1601547,10.4677712 L15.4248039,9.88769342 C16.1162094,8.9970686 16.6054676,8.14745923 16.8749992,7.49999811 C16.4853511,6.5361311 15.6416015,5.1298811 14.3789051,3.98437311 C13.1162105,2.81220486 11.437499,1.87499811 9.37499919,1.87499811 C8.20898393,1.87499811 7.166015,2.17411895 6.25195214,2.64579882 L5.45214781,2.01503714 C6.56249919,1.3710915 7.87499884,0.911131103 9.37499919,0.911131103 C11.7421863,0.911131103 13.6376945,2.01679488 15.0175766,3.29882642 C16.3886718,4.57031061 17.3056636,6.0673811 17.739257,7.13964646 C17.8359363,7.37109204 17.8359363,7.62890418 17.739257,7.86034932 Z M2.5895504,4.53222503 L3.32519495,5.1123028 C2.63261685,5.97656061 2.14540967,6.852537 1.84863219,7.4736311 C2.26552704,8.43749811 3.10839826,9.84374811 4.37109375,11.0156231 C5.63378924,12.1874981 7.31250027,13.1249981 9.34863308,13.1249981 C10.5410154,13.1249981 11.5839843,12.8261696 12.4980471,12.3544907 L13.2978515,12.9843735 C12.1611331,13.6289047 10.8750004,14.0624981 9.34863308,14.0624981 C7.0078125,14.0624981 5.11230478,12.9843735 3.73242178,11.7011698 C2.36191401,10.4033186 1.44550779,8.90624811 1.00957015,7.86034932 C0.913476436,7.62890418 0.913476436,7.37109204 1.00957015,7.13964646 C1.31044918,6.4189436 1.83984393,5.46972503 2.58955085,4.53222503 L2.5895504,4.53222503 Z M5.59863308,7.4736311 C5.59863308,7.31542771 5.63964853,7.13671704 5.66308612,6.95800592 L6.56835937,7.6728495 C6.65625,9.14648284 7.85449245,10.3124981 9.34863308,10.3124981 C9.53906277,10.3124981 9.70312545,10.2978497 9.85839853,10.2714827 L10.7636718,10.9833964 C10.3330083,11.1562478 9.86425826,11.2499981 9.34863308,11.2499981 C7.30371112,11.2499981 5.59863308,9.57128753 5.59863308,7.4736311 Z M13.1250001,7.4736311 C13.1250001,7.68456807 13.1103517,7.86327918 13.0869145,8.0419903 L12.1816404,7.32714673 C12.0937497,5.85351383 10.8691407,4.6611311 9.34863308,4.6611311 C9.21093741,4.6611311 9.04687473,4.70214655 8.89160165,4.72851356 L7.98632839,4.01659985 C8.41699192,3.84374847 8.88574192,3.7236311 9.34863308,3.7236311 C11.4462895,3.7236311 13.1250001,5.42870869 13.1250001,7.4736311 Z" id="Shape"></path>
        </g>
    </g>
</svg>