<svg xmlns="http://www.w3.org/2000/svg" height="1em" viewBox="0 0 576 512" fill="#5D63F1" stroke="currentColor" stroke-width="2" stroke-linecap="round" stroke-linejoin="round"><path d="M0 80C0 53.5 21.5 32 48 32H272c26.5 0 48 21.5 48 48V208c0 26.5-21.5 48-48 48H48c-26.5 0-48-21.5-48-48V80zm384 0c0-26.5 21.5-48 48-48h96c26.5 0 48 21.5 48 48V336c0 26.5-21.5 48-48 48H432c-26.5 0-48-21.5-48-48V80zM112 304H288c26.5 0 48 21.5 48 48v80c0 26.5-21.5 48-48 48H112c-26.5 0-48-21.5-48-48V352c0-26.5 21.5-48 48-48z"/></svg>