<?xml version="1.0" encoding="UTF-8"?>
<svg width="50px" height="50px" viewBox="0 0 50 50" version="1.1" xmlns="http://www.w3.org/2000/svg" xmlns:xlink="http://www.w3.org/1999/xlink">
    <title>ee-pro</title>
    <g id="ee-pro" stroke="none" stroke-width="1" fill="none" fill-rule="evenodd">
        <g transform="translate(-860.000000, -230.000000)" fill="#5D63F1" fill-rule="nonzero" id="pro-2">
            <g transform="translate(860.000000, 230.000000)" id="paths">
                <path d="M44,0 C47.3137085,0 50,2.6862915 50,6 L50,44 C50,47.3137085 47.3137085,50 44,50 L6,50 C2.6862915,50 0,47.3137085 0,44 L0,6 C0,2.6862915 2.6862915,0 6,0 L44,0 Z M44,2 L6,2 C3.85780461,2 2.10892112,3.68396847 2.00489531,5.80035966 L2,6 L2,44 C2,46.1421954 3.68396847,47.8910789 5.80035966,47.9951047 L6,48 L44,48 C46.1421954,48 47.8910789,46.3160315 47.9951047,44.1996403 L48,44 L48,6 C48,3.85780461 46.3160315,2.10892112 44.1996403,2.00489531 L44,2 Z" id="Rectangle"></path>
                <path d="M31.0315365,17.6881473 C31.1796093,17.6881473 31.3073823,17.6026335 31.3691116,17.4784005 L32.5416361,14.6665653 L35.353582,13.4941514 C35.4775384,13.4322008 35.5627204,13.3040407 35.5627204,13.1561891 C35.5627204,13.0083375 35.4775384,12.8806198 35.353582,12.8187246 L32.5416361,11.6461448 L31.3691116,8.83447544 C31.3073823,8.71018717 31.1791668,8.62467331 31.0311493,8.62467331 C30.8830765,8.62467331 30.7553035,8.71018717 30.6935742,8.83447544 L29.5209391,11.6461448 L26.7089932,12.8187246 C26.5850368,12.8806198 26.4998548,13.00878 26.4998548,13.1566316 C26.4998548,13.3044832 26.5850368,13.4322008 26.7089932,13.4941514 L29.5209391,14.6665653 L30.6935742,17.4784005 C30.7553035,17.6026335 30.883519,17.6881473 31.0315365,17.6881473 Z M17.5618306,37.4707235 L22.8746422,34.6733802 L28.1874538,37.4707235 C28.3677741,37.5654193 28.5730405,37.6190729 28.7906971,37.6190729 C29.5082171,37.6190729 30.0908287,37.0365166 30.0908287,36.3189413 C30.0908287,36.243605 30.0857399,36.1717535 30.0734051,36.0999572 L29.0600713,30.1761032 L33.3586088,25.9850388 C34.1295058,25.2319526 33.6984518,23.9177715 32.6337876,23.7646652 L26.6979306,22.8983533 L24.0410823,17.5063889 C23.5658332,16.5435559 22.189591,16.5320508 21.7081468,17.5063889 L19.0512985,22.8983533 L13.1154415,23.7646652 C12.0507773,23.9177715 11.6197786,25.2319526 12.3959303,25.9850388 L16.6953528,30.1761032 L15.675824,36.0999572 C15.4943974,37.1707059 16.6210122,37.9751225 17.5618306,37.4707235 Z M37.3756586,24.9375216 C37.4940837,24.9375216 37.5963574,24.8690995 37.6456965,24.7696467 L38.5835834,22.5205657 L40.8329963,21.5826235 C40.9321171,21.5330631 41.0002074,21.4305681 41.0002074,21.3122537 C41.0002074,21.1939945 40.9321171,21.0918315 40.8329963,21.042271 L38.5835834,20.1044395 L37.6456965,17.8552478 C37.596302,17.7558504 37.4937518,17.6874836 37.3753267,17.6874836 C37.2569016,17.6874836 37.1546279,17.7558504 37.1052887,17.8552478 L36.1672359,20.1044395 L33.9179337,21.042271 C33.8188681,21.0918315 33.7507225,21.1943264 33.7507225,21.3126409 C33.7507225,21.4309 33.8188681,21.5330631 33.9179337,21.5826235 L36.1672359,22.5205657 L37.1052887,24.7696467 C37.1546279,24.8690995 37.2571782,24.9375216 37.3756586,24.9375216 Z" id="ï¢"></path>
            </g>
        </g>
    </g>
</svg>