<?xml version="1.0" encoding="UTF-8"?>
<svg width="50px" height="50px" viewBox="0 0 50 50" version="1.1" xmlns="http://www.w3.org/2000/svg" xmlns:xlink="http://www.w3.org/1999/xlink">
    <title>Metaweblog</title>
    <g id="Icons" stroke="none" stroke-width="1" fill="#5D63F1" fill-rule="evenodd">
        <g transform="translate(-680.000000, -50.000000)" fill="#5D63F1" fill-rule="nonzero" id="metaweblog">
            <g transform="translate(680.000000, 50.000000)" id="paths">
                <path d="M44,0 C47.3137085,0 50,2.6862915 50,6 L50,44 C50,47.3137085 47.3137085,50 44,50 L6,50 C2.6862915,50 0,47.3137085 0,44 L0,6 C0,2.6862915 2.6862915,0 6,0 L44,0 Z M44,2 L6,2 C3.85780461,2 2.10892112,3.68396847 2.00489531,5.80035966 L2,6 L2,44 C2,46.1421954 3.68396847,47.8910789 5.80035966,47.9951047 L6,48 L44,48 C46.1421954,48 47.8910789,46.3160315 47.9951047,44.1996403 L48,44 L48,6 C48,3.85780461 46.3160315,2.10892112 44.1996403,2.00489531 L44,2 Z" id="Rectangle"></path>
                <path d="M20.1296522,34.321881 L24.9999714,31.8843868 L29.8702906,34.321881 C30.3437086,34.5609246 30.9062073,34.5609246 31.3796254,34.321881 L36.0671142,31.9781366 C36.638997,31.6921723 36.9999428,31.1062362 36.9999428,30.468756 L36.9999428,25.3078492 C36.9999428,24.6047258 36.5640155,23.976584 35.9030521,23.7281563 L31.3749562,22.0312762 L31.3749562,16.9453508 C31.3749562,16.2422275 30.9390289,15.6140856 30.2780655,15.3656579 L25.5905767,13.6078496 C25.2109084,13.4625557 24.7890344,13.4625557 24.4046512,13.6078496 L19.7171623,15.3656579 C19.0562447,15.6140856 18.6203174,16.2422275 18.6203174,16.9453508 L18.6203174,22.0312762 L14.0921757,23.7281563 C13.4359273,23.976584 13,24.6047258 13,25.3078492 L13,30.468756 C13,31.1062362 13.3609458,31.6921723 13.9328286,31.9781366 L18.6203174,34.321881 C19.0937355,34.5609246 19.6562341,34.5609246 20.1296522,34.321881 Z M24.9999714,18.8484529 L20.2187328,16.90786 L20.2187328,16.8797076 L24.9999714,15.0891235 L29.78121,16.8797076 L29.78121,16.90786 L24.9999714,18.8484529 Z M25.7968445,23.5640942 L25.7968445,20.3672176 L29.78121,18.6328468 L29.78121,22.0687669 L25.7968445,23.5640942 Z M19.3749848,27.2156205 L14.5937462,25.2750276 L14.5937462,25.2468752 L19.3749848,23.4562911 L24.1562234,25.2468752 L24.1562234,25.2750276 L19.3749848,27.2156205 Z M30.624958,27.2156205 L25.8437194,25.2750276 L25.8437194,25.2468752 L30.624958,23.4562911 L35.4061966,25.2468752 L35.4061966,25.2750276 L30.624958,27.2156205 Z M20.1718579,32.5171978 L20.1718579,28.8093667 L24.1562234,26.9906302 L24.1562234,30.5250151 L20.1718579,32.5171978 Z M31.4218311,32.5171978 L31.4218311,28.8093667 L35.4061966,26.9906302 L35.4061966,30.5250151 L31.4218311,32.5171978 Z" id=""></path>
            </g>
        </g>
    </g>
</svg>