<svg width="26px" height="18px" viewBox="0 0 26 18" version="1.1" xmlns="http://www.w3.org/2000/svg" xmlns:xlink="http://www.w3.org/1999/xlink">
    <title>ee-logomark-pro-dock</title>
    <defs>
        <polygon id="path-1" points="0 0.233008693 13.3311125 0.233008693 13.3311125 16.521739 0 16.521739"></polygon>
    </defs>
    <g id="Slicing" stroke="none" stroke-width="1" fill="none" fill-rule="evenodd">
        <g id="ee-logomark-pro-dock">
            <path d="M10.6369527,8.85262654 C10.901043,7.36050351 11.3672669,6.17119368 12.0216842,5.31438463 C12.4848102,4.70127179 12.9975017,4.390714 13.5465926,4.390714 C13.8372726,4.390714 14.0832922,4.50249415 14.2774231,4.72398923 C14.4658746,4.94057941 14.5619075,5.23848771 14.5619075,5.60867879 C14.5619075,6.4662623 14.1762272,7.24665814 13.4159673,7.93127929 C12.8648111,8.42280217 11.9798634,8.78266714 10.7866813,9.00080623 L10.6041673,9.03436609 L10.6369527,8.85262654 Z M15.8366659,10.9372102 C15.1665013,11.5800106 14.5799782,12.033585 14.1044607,12.2605013 C13.6041607,12.4980019 13.0873388,12.6177847 12.5687099,12.6177847 C11.9357193,12.6177847 11.421479,12.4161674 11.0419944,12.0178377 C10.6622517,11.6205406 10.4696697,11.0507974 10.4696697,10.3233229 L10.5187187,9.59481576 L10.6196565,9.57751953 C12.3952312,9.27806231 13.7345278,8.93549358 14.5988233,8.55807422 C15.4538253,8.18555977 16.0777805,7.74205331 16.4539091,7.24072062 C16.827198,6.74351838 17.0156496,6.24296015 17.0156496,5.75711663 C17.0156496,5.16723754 16.7920893,4.69507612 16.3312866,4.30965403 C15.868935,3.92474825 15.2018682,3.73010105 14.3504803,3.73010105 C13.1673662,3.73010105 12.0477576,4.00606637 11.0228911,4.55076872 C9.99983165,5.09495477 9.18148736,5.84927717 8.59135012,6.79256741 C8.00276179,7.73482503 7.70407903,8.73361811 7.70407903,9.75874277 C7.70407903,10.903134 8.05697388,11.8208671 8.75243745,12.4843198 C9.4507407,13.1498376 10.4260419,13.4859525 11.6514931,13.4859525 C12.5217261,13.4859525 13.3452334,13.3111831 14.0992977,12.966291 C14.8203184,12.6363717 15.5661218,12.0645633 16.3194115,11.2929447 C16.1758786,11.1873602 15.9383781,11.0120745 15.8366659,10.9372102 L15.8366659,10.9372102 Z" id="Fill-1" fill="#5D63F1"></path>
            <g id="Group-5" transform="translate(0.000000, 0.988106)">
                <mask id="mask-2" fill="white">
                    <use xlink:href="#path-1"></use>
                </mask>
                <g id="Clip-4"></g>
                <path d="M3.75545166,10.1878959 C2.74684877,6.24125634 5.13527823,2.11545872 9.23655134,0.233008693 C9.13380654,0.26992454 9.03751556,0.312261595 8.93606152,0.350210053 C9.03983893,0.30064472 9.13251578,0.259082123 9.20428225,0.23455761 L1.51959049,2.21742906 L3.5682909,3.42945633 C0.885309121,5.70171705 -0.49890605,8.51790565 0.164546578,11.1146644 C1.20309519,15.1805706 6.89045894,17.300263 13.3311125,16.2586166 C8.83486563,16.5934407 4.76328008,14.1342774 3.75545166,10.1878959" id="Fill-3" fill="#5D63F1" mask="url(#mask-2)"></path>
            </g>
            <path d="M21.7637503,6.33284895 C22.7723532,10.2800049 20.38444,14.4055443 16.2829087,16.2882525 C16.3853954,16.2510785 16.4816864,16.2087415 16.5831404,16.1702767 C16.479363,16.2208746 16.3866862,16.2616628 16.3149197,16.2864454 L23.9996114,14.3040903 L21.9511692,13.092063 C24.6338928,10.8195442 26.018108,8.00283924 25.3549135,5.40608049 C24.3161067,1.34172322 18.628743,-0.779259962 12.1880894,0.26341909 C16.6840782,-0.0724376682 20.75618,2.38672565 21.7637503,6.33284895" id="Fill-6" fill="#5D63F1"></path>
        </g>
    </g>
</svg>